<svg xmlns="http://www.w3.org/2000/svg" viewBox="0 0 287.4 212.2"><defs><style>.ae-1{fill:none;stroke:#292929;stroke-miterlimit:10;stroke-width:3px;}</style></defs><g id="Layer_2" data-name="Layer 2"><g id="Layer_1-2" data-name="Layer 1"><path class="ae-1" d="M48.6,149.8l-14.9,56c-.3,1.5-1,2.1-2.8,2.1H3.4c-1.8,0-2.1-.7-1.8-2.8L54.8,18.8c.9-3.4,1.5-6.1,1.8-15.4,0-1.3.6-1.9,1.5-1.9H97.4c1.3,0,1.8.4,2.1,1.9l59.9,202c.3,1.5,0,2.4-1.5,2.4H127c-1.5,0-2.5-.5-2.8-1.8l-15.5-56.3-60.1.1Zm52.6-30.5c-5.3-20.7-18-66.2-22.6-88.1h-.3c-4,21.9-14.1,59-21.9,88.1Zm100.5,19.2c.4,25.4,12.4,42.4,40.9,42.4,11.1,0,20.7-1.5,30.5-5.9,1.3-.6,2.2-.2,2.2,1.3v23.6a4,4,0,0,1-1.9,3.7c-9.9,4.9-22.2,7.1-37.6,7.1-49.5,0-68-36.5-68-77.3,0-44.2,22.9-80.4,63.1-80.4,40.8,0,55,34.4,55,62.2,0,9-.7,16.4-1.5,19.8a2.58,2.58,0,0,1-2.5,2.3c-3.7.7-14.9,1.3-31.3,1.3l-48.9-.1Zm38.1-25.8c9.6,0,13,0,13.9-.3,0-1.3.3-2.3.3-3.2,0-10.3-5-29-24.5-29-17.9,0-25.7,15.8-27.5,32.5Z"/></g></g></svg>