<svg xmlns="http://www.w3.org/2000/svg" viewBox="0 0 260.85 215.39"><defs><style>.ai-1{fill:#292929;}</style></defs><g id="Layer_2" data-name="Layer 2"><g id="Layer_1-2" data-name="Layer 1"><path class="ai-1" d="M48,214.89H0c1.66-5.76,3.09-11,4.68-16.18Q22.7,140,40.74,81.37,51.27,47,61.61,12.6c.92-3.07,2.33-4.26,5.57-4.23q26.49.27,53,.18c2.92,0,4.29.74,5.22,3.77,12,38.94,24.21,77.82,36.3,116.74q12.87,41.46,25.56,83a26.89,26.89,0,0,1,.53,2.94c-1.9.12-3.48.29-5.06.29-13.16,0-26.33-.17-39.49.13-4.16.09-5.8-1.38-6.89-5.22-4.12-14.56-8.66-29-12.8-43.56-1-3.36-2.5-4.41-5.93-4.38q-25.23.24-50.49,0c-3.29,0-4.63,1.11-5.47,4.24-3.92,14.62-8.08,29.18-12.18,43.75C49,211.83,48.47,213.39,48,214.89ZM91.73,44.37c-7.23,27.55-14.4,54.91-21.66,82.57h44.86Z"/><path class="ai-1" d="M212.53,140.66c0-23.32.11-46.63-.09-69.94,0-4.45,1.37-5.74,5.71-5.65q17.73.38,35.47,0c4.42-.09,5.68,1.4,5.66,5.74-.14,38.63-.08,77.27-.07,115.9,0,8-.17,16,.08,23.92.12,3.89-1.43,4.77-5,4.72-12.16-.17-24.32-.21-36.47,0-4.05.08-5.43-1-5.4-5.26C212.63,187,212.53,163.8,212.53,140.66Z"/><path class="ai-1" d="M235.57,46.75c-14.21,0-23.94-9.39-24-23.1C211.42,9.59,221.44,0,236.14,0c14,0,24.56,10.06,24.71,23.47S250.09,46.8,235.57,46.75Z"/></g></g></svg>