<svg xmlns="http://www.w3.org/2000/svg" viewBox="0 0 213.91 130.93"><defs><style>.ae-1{fill:none;stroke:#292929;stroke-miterlimit:10;stroke-width:3px;}</style></defs><g id="Layer_2" data-name="Layer 2"><g id="Layer_1-2" data-name="Layer 1"><path class="ae-1" d="M2,126.33c2.37-6.93,4.48-13.19,6.66-19.44C19,77.21,29.44,47.54,39.7,17.82a62.62,62.62,0,0,0,3-12.55c.4-3.12,1.68-3.81,4.47-3.77,8.33.12,16.67-.13,25,.19,1.64.06,4.13,1.68,4.66,3.15q21.63,60.1,42.89,120.33a5.14,5.14,0,0,1,0,1.11,28.46,28.46,0,0,1-4,.59c-6.33.06-12.66-.08-19,.08-3.1.07-4.82-.83-5.81-4-2.31-7.46-5.17-14.75-7.55-22.2-.9-2.83-2.25-3.94-5.28-3.9q-18.24.24-36.48,0c-3,0-4.47,1-5.31,3.86-2.11,7.18-4.67,14.22-6.7,21.42-1.05,3.74-3,5.06-6.81,4.87-5.15-.27-10.32,0-15.48-.09C5.74,126.86,4.18,126.56,2,126.33ZM59.75,24.54C54.69,41.07,49.84,56.94,44.92,73H74.77C69.73,56.78,64.84,41,59.75,24.54Z"/><path class="ae-1" d="M153.43,86.09c-.23,8,4.46,14.74,12.26,18,11.27,4.72,22.54,2.53,33.8,0,1.42-.32,2.81-.79,4.67-1.32,0,6.4.19,12.39-.14,18.35a5.32,5.32,0,0,1-3,3.83c-16.58,5.34-33.4,6.76-49.77-.23-14.31-6.11-22-18-24.33-33.09-3-18.89.13-36.44,14.58-50.11,14.17-13.39,31.26-14.31,48.45-7.64C206,40.08,211.5,54.07,212.37,70.26c.18,3.48-.35,7-.22,10.48.14,3.91-1.64,5.31-5.38,5.3-15.81-.05-31.63,0-47.45,0Zm-.25-17.54c9.9,0,19.49.09,29.08,0,5.25-.07,6.05-1.43,4.4-6.49-2.57-7.88-9.75-12-19-10.9C159.89,52.06,153.92,58.87,153.18,68.55Z"/></g></g></svg>