<?xml version="1.0" encoding="utf-8"?>
<!-- Generator: Adobe Illustrator 24.3.0, SVG Export Plug-In . SVG Version: 6.00 Build 0)  -->
<svg version="1.1" id="Layer_1" xmlns="http://www.w3.org/2000/svg" xmlns:xlink="http://www.w3.org/1999/xlink" x="0px" y="0px"
	 viewBox="0 0 4093.8 3605.1" style="enable-background:new 0 0 4093.8 3605.1;" xml:space="preserve">
<style type="text/css">
	.st0{fill:#2C45D1;}
	.st1{fill:#B62FC2;}
	.st2{fill:#DE9F3A;}
</style>
<path id="SF3" class="st0" d="M-832,2829.1c-1,7.2-1.8,14.4-2.9,21.5c-4.9,32.7-15.2,64.3-30.3,93.7
	c-20.8,40.2-42.3,80.1-64.9,119.4c-100.4,174.4-201.1,348.6-302.1,522.7c-2.6,4.6-5.3,9-8.7,14.7L-2984.6,585
	c5.7-0.2,9.6-0.3,13.4-0.3c96,0,192,0,288,0c137.3,0,274.7,0,412,0.1c61.2,0.1,119.7,13,175,39.5c78,37.5,138.3,94.2,181.5,169.1
	c48.8,84.5,97.5,169.2,146,253.8c329.6,572.2,323.8,559.8,653.4,1131.9c72,125,144.1,250,216.2,374.9c16.6,28.6,32.9,57.1,44.1,88.3
	c9.4,26.4,16.2,53.6,20.4,81.3c1.1,7.2,1.8,14.4,2.6,21.6V2829.1z"/>
<path id="S3" class="st0" d="M-832,2829.1c-1,7.2-1.8,14.4-2.9,21.5c-4.9,32.7-15.2,64.3-30.3,93.7c-20.8,40.2-42.3,80.1-64.9,119.4
	c-100.4,174.4-201.1,348.6-302.1,522.7c-2.6,4.6-5.3,9-8.7,14.7L-3320,0.4c5.7-0.2,9.6-0.3,13.4-0.3c96,0,192,0,288,0
	c137.3,0,274.7,0,412,0.1c61.2,0.1,119.7,13,175,39.5c78,37.5,138.3,94.2,181.5,169.1c48.8,84.5,97.5,169.2,146,253.8
	c329.6,572.2,659.2,1144.3,988.8,1716.4c72,125,144.1,250,216.2,374.9c16.6,28.6,32.9,57.1,44.1,88.3c9.4,26.4,16.2,53.6,20.4,81.3
	c1.1,7.2,1.8,14.4,2.6,21.6V2829.1z"/>
<path id="SF2" class="st1" d="M-4819.5,3605.1c-8.9-1.2-17.8-2.2-26.7-3.5c-130.9-18.5-230.7-85.4-300.9-196.5
	c-25.8-40.8-48.4-83.6-72.5-125.4c-0.9-1.6-1.9-3.2-2.8-4.9c-127.1-219.9,31.6-494.9,285.6-494.9c566.7,0.1,2004.8,0.2,2527,0.2
	c19,0,14-2.4,23,13.2c154.5,267.4,308.9,534.8,463.3,802.3l5.5,9.5L-4819.5,3605.1z"/>
<path id="S2" class="st1" d="M-4238,3605.1c-8.9-1.2-17.8-2.2-26.7-3.5c-130.9-18.5-230.7-85.4-300.9-196.5
	c-25.8-40.8-48.4-83.6-72.5-125.4c-93.3-161.5-289.3-499.8-289.3-499.8s1684.3,0.3,2517.5,0.3c19,0,14-2.4,23,13.2
	c154.5,267.4,308.9,534.8,463.3,802.3l5.5,9.5L-4238,3605.1z"/>
<path id="SF1" class="st2" d="M-5267.2,1510.9l1608-926.3l-2.5,1851.4c-0.4,0.5-0.9,0.9-1.4,1.2c-0.3,0.1-0.6,0.1-0.9,0
	c-532.3-307.3-1064.6-614.6-1596.9-922C-5262.5,1514.3-5264.1,1513-5267.2,1510.9z"/>
<path id="S1" class="st2" d="M-4585.7,2191l929-1606.4l923.9,1604.4c-0.1,0.6-0.3,1.2-0.6,1.7c-0.2,0.3-0.5,0.4-0.8,0.5
	c-614.7,0.2-1229.3,0.3-1843.9,0.5C-4580,2191.6-4581.9,2191.3-4585.7,2191z"/>
</svg>
