<?xml version="1.0" encoding="utf-8"?>
<!-- Generator: Adobe Illustrator 24.3.0, SVG Export Plug-In . SVG Version: 6.00 Build 0)  -->
<svg version="1.1" id="Layer_1" xmlns="http://www.w3.org/2000/svg" xmlns:xlink="http://www.w3.org/1999/xlink" x="0px" y="0px"
	 viewBox="0 0 4435.2 3605" style="enable-background:new 0 0 4435.2 3605;" xml:space="preserve">
<style type="text/css">
	.st0{fill:#2C45D1;}
	.st1{fill:#B62FC2;}
	.st2{fill:#DE9F3A;}
</style>
<g id="Layer_2_1_">
	<g id="Layer_1-2">
		<path id="SF3" class="st0" d="M4435.2,2829c-1,7.2-1.8,14.4-2.9,21.5c-4.9,32.7-15.2,64.3-30.3,93.7
			c-20.8,40.2-42.3,80.1-64.9,119.4c-100.4,174.4-201.1,348.6-302.1,522.7c-2.6,4.6-5.3,9-8.7,14.7L2282.6,584.9
			c5.7-0.2,9.6-0.3,13.4-0.3h288c137.3,0,274.7,0,412,0.1c61.2,0.1,119.7,13,175,39.5c78,37.5,138.3,94.2,181.5,169.1
			c48.8,84.5,97.4,169.2,146,253.8c329.6,572.2,323.8,559.8,653.4,1131.9c72,125,144.1,250,216.2,374.9
			c16.6,28.6,32.9,57.1,44.1,88.3c9.4,26.4,16.2,53.6,20.4,81.3c1.1,7.2,1.8,14.4,2.6,21.6V2829z"/>
		<path id="S3" class="st0" d="M5411,2829c-1,7.2-1.8,14.4-2.9,21.5c-4.9,32.7-15.2,64.3-30.3,93.7c-20.8,40.2-42.3,80.1-64.9,119.4
			c-100.4,174.4-201.1,348.6-302.1,522.7c-2.6,4.6-5.3,9-8.7,14.7L2923,0.3c5.7-0.2,9.6-0.3,13.4-0.3h288c137.3,0,274.7,0,412,0.1
			c61.2,0.1,119.7,13,175,39.5c78,37.5,138.3,94.2,181.5,169.1c48.8,84.6,97.4,169.2,146,253.8
			c329.6,572.2,659.1,1144.3,988.8,1716.4c72,125,144.1,250,216.2,374.9c16.6,28.6,32.9,57.1,44.1,88.3
			c9.4,26.4,16.2,53.6,20.4,81.3c1.1,7.2,1.8,14.4,2.6,21.6V2829z"/>
		<path id="S2" class="st1" d="M-475.5,3605c-8.9-1.2-17.8-2.2-26.7-3.5c-130.9-18.6-230.7-85.5-300.9-196.5
			c-25.8-40.8-48.3-83.6-72.5-125.4c-93.3-161.6-289.3-499.9-289.3-499.9s1684.3,0.3,2517.5,0.3c19,0,14-2.4,23,13.2
			c154.5,267.4,308.9,534.8,463.3,802.3l5.5,9.5L-475.5,3605z"/>
		<path id="SF1" class="st2" d="M0,1510.8l1608-926.3l-2.5,1851.4c-0.4,0.5-0.9,0.9-1.4,1.2c-0.3,0.1-0.6,0.1-0.9,0
			C1070.9,2129.8,538.6,1822.5,6.3,1515.2C4.6,1514.2,3.1,1513,0,1510.8z"/>
		<path id="S1" class="st2" d="M681.5,2190.9l929-1606.4l923.9,1604.4c-0.1,0.6-0.3,1.2-0.6,1.7c-0.2,0.3-0.5,0.4-0.8,0.5
			c-614.7,0.2-1229.3,0.3-1843.9,0.5C687.2,2191.6,685.2,2191.2,681.5,2190.9z"/>
	</g>
</g>
</svg>
