<svg xmlns="http://www.w3.org/2000/svg" viewBox="0 0 6575.9 3605"><defs><style>.cls-1{fill:#2c45d1;}.cls-2{fill:#b62fc2;}.cls-3{fill:#de9f3a;}</style></defs><g id="Layer_2" data-name="Layer 2"><g id="Layer_1-2" data-name="Layer 1"><g id="Layer_2-2" data-name="Layer 2"><g id="Layer_1-2-2" data-name="Layer 1-2"><path id="SF3" class="cls-1" d="M5600.1,2829c-1,7.2-1.8,14.4-2.9,21.5a303.54,303.54,0,0,1-30.3,93.7c-20.8,40.2-42.3,80.1-64.9,119.4q-150.6,261.6-302.1,522.7c-2.6,4.6-5.3,9-8.7,14.7L3447.5,584.9c5.7-.2,9.6-.3,13.4-.3h288q205.95,0,412,.1c61.2.1,119.7,13,175,39.5,78,37.5,138.3,94.2,181.5,169.1q73.2,126.75,146,253.8c329.6,572.2,323.8,559.8,653.4,1131.9q108,187.5,216.2,374.9c16.6,28.6,32.9,57.1,44.1,88.3a437.93,437.93,0,0,1,20.4,81.3c1.1,7.2,1.8,14.4,2.6,21.6Z"/><path id="S3" class="cls-1" d="M6575.9,2829c-1,7.2-1.8,14.4-2.9,21.5a303.54,303.54,0,0,1-30.3,93.7c-20.8,40.2-42.3,80.1-64.9,119.4q-150.6,261.6-302.1,522.7c-2.6,4.6-5.3,9-8.7,14.7L4087.9.3c5.7-.2,9.6-.3,13.4-.3h288q205.95,0,412,.1c61.2.1,119.7,13,175,39.5,78,37.5,138.3,94.2,181.5,169.1q73.2,126.9,146,253.8,494.4,858.3,988.8,1716.4,108,187.5,216.2,374.9c16.6,28.6,32.9,57.1,44.1,88.3a437.93,437.93,0,0,1,20.4,81.3c1.1,7.2,1.8,14.4,2.6,21.6Z"/><path id="S2" class="cls-2" d="M689.4,3605c-8.9-1.2-17.8-2.2-26.7-3.5C531.8,3582.9,432,3516,361.8,3405c-25.8-40.8-48.3-83.6-72.5-125.4C196,3118,0,2779.7,0,2779.7s1684.3.3,2517.5.3c19,0,14-2.4,23,13.2q231.75,401.1,463.3,802.3l5.5,9.5Z"/><path id="SF1" class="cls-3" d="M1164.9,1510.8l1608-926.3-2.5,1851.4a5.26,5.26,0,0,1-1.4,1.2,1.39,1.39,0,0,1-.9,0L1171.2,1515.2C1169.5,1514.2,1168,1513,1164.9,1510.8Z"/><path id="S1" class="cls-3" d="M1846.4,2190.9l929-1606.4,923.9,1604.4a4.92,4.92,0,0,1-.6,1.7,1.37,1.37,0,0,1-.8.5q-922.05.3-1843.9.5C1852.1,2191.6,1850.1,2191.2,1846.4,2190.9Z"/></g></g></g></g></svg>