<svg xmlns="http://www.w3.org/2000/svg" viewBox="0 0 4393.42 1996.35"><defs><style>.bha-1{fill:#0026ff;}.bha-2{fill:#ffa02b;}.bha-3{fill:#29ff46;}</style></defs><g id="Layer_2" data-name="Layer 2"><g id="Layer_1-2" data-name="Layer 1"><g id="Layer_2-2" data-name="Layer 2"><g id="Layer_1-2-2" data-name="Layer 1-2"><path id="F3" class="bha-1" d="M1994.12,1996.26q-402.21,0-804.43.09c-3.75,0-4.59-.84-4.59-4.59q.18-781.89,0-1563.81c0-3.75.84-4.59,4.59-4.59q397.74.15,795.41.09c-.18.25-.38.5-.54.76a.64.64,0,0,0,.36.31,32.52,32.52,0,0,0,4.36.73,945.09,945.09,0,0,1,127.39,15.24c53.08,9.87,103.65,26.71,150.51,53.87,73.14,42.47,120.92,105,143.74,186,19.54,69.44,22.25,140.21,10.23,211.34q-16.83,99.66-89.52,170.23c-32.61,31.65-70.18,55.94-110.52,76.34-1.85.93-4,1.53-5.75,3.6,1.92.63,3.42,1.15,4.93,1.62,36.72,11.25,72,25.74,105,45.64C2368,1214.91,2403.89,1248,2432,1289.2c40.18,59,61.08,124.83,68.09,195.39a550.7,550.7,0,0,1-.81,119.71c-4,34-11.19,67.32-23.53,99.3-34.65,89.8-94.71,157.89-177.32,206.66-75.55,44.59-158.13,67.33-244.28,79-18.81,2.56-37.7,4.45-56.69,5.38C1996.38,1994.69,1994,1993.36,1994.12,1996.26Zm-462.8-484.64v209.43c0,7.18-.92,6.39,6.36,6.39h356.89a522.39,522.39,0,0,0,83.61-6.16c32.29-5.19,63.22-14.2,91.69-30.72,42.15-24.44,69-60.44,80.19-107.71,10.87-46,8.83-92.26-1.56-138.13-6.6-29.15-18.9-55.75-39.19-78.09-22.13-24.37-50.1-39.88-80.48-51.32-40-15-81.68-19.55-124.1-19.52q-183.69.09-367.38-.11c-5.33,0-6.16,1.67-6.15,6.47Q1531.46,1406.91,1531.32,1511.62Zm190.8-451.41c55.82,0,111.64.43,167.46-.15,38.29-.4,75.44-7.31,110.43-23.78,42.29-19.9,72-50.73,84.63-96.56,9.19-33.36,10.48-67.36,6.23-101.54-3.9-31.38-15.9-59.18-37-83-19.22-21.73-43.53-35.38-70.39-44.81-37.36-13.15-76.26-17.56-115.48-17.76-110.64-.59-221.29-.26-331.93-.47-4.81,0-4.8,2.1-4.8,5.65q.12,178.22,0,356.42c0,4.68.94,6.13,5.92,6.12C1598.79,1060.14,1660.44,1060.21,1722.12,1060.21Z"/><path id="SF3" class="bha-1" d="M809,1996.26q-402.21,0-804.43.09c-3.75,0-4.59-.84-4.59-4.59Q.17,1209.87,0,428c0-3.75.84-4.59,4.59-4.59q397.73.15,795.41.09c-.18.25-.38.5-.54.76a.64.64,0,0,0,.36.31,32.25,32.25,0,0,0,4.36.73,945.28,945.28,0,0,1,127.39,15.24c53.08,9.87,103.65,26.71,150.51,53.87,73.14,42.47,120.92,105,143.74,186,19.54,69.44,22.25,140.21,10.23,211.34q-16.83,99.66-89.52,170.23c-32.61,31.65-70.18,55.94-110.52,76.34-1.85.93-4,1.53-5.75,3.6,1.92.63,3.42,1.15,4.93,1.62,36.72,11.25,72,25.74,105,45.64,42.73,25.78,78.58,58.84,106.66,100.07,40.18,59,61.08,124.83,68.09,195.39a550.7,550.7,0,0,1-.81,119.71c-4,34-11.19,67.32-23.53,99.3-34.65,89.8-94.71,157.89-177.32,206.66-75.55,44.59-158.13,67.33-244.28,79-18.81,2.56-37.7,4.45-56.69,5.38C811.28,1994.69,808.93,1993.36,809,1996.26Zm-462.8-484.64v209.43c0,7.18-.92,6.39,6.36,6.39H709.47a522.39,522.39,0,0,0,83.61-6.16c32.29-5.19,63.22-14.2,91.69-30.72,42.15-24.44,69-60.44,80.19-107.71,10.87-46,8.83-92.26-1.56-138.13-6.6-29.15-18.9-55.75-39.19-78.09-22.13-24.37-50.1-39.88-80.48-51.32-40-15-81.68-19.55-124.1-19.52q-183.69.09-367.38-.11c-5.33,0-6.16,1.67-6.15,6.47Q346.35,1406.91,346.22,1511.62ZM537,1060.21c55.82,0,111.64.43,167.46-.15,38.29-.4,75.44-7.31,110.43-23.78,42.29-19.9,72-50.73,84.63-96.56,9.19-33.36,10.48-67.36,6.23-101.54-3.9-31.38-15.9-59.18-37-83-19.22-21.73-43.53-35.38-70.39-44.81C761,697.22,722.12,692.81,682.9,692.61c-110.64-.59-221.29-.26-331.93-.47-4.81,0-4.8,2.1-4.8,5.65q.1,178.22,0,356.42c0,4.68.94,6.13,5.92,6.12C413.69,1060.14,475.34,1060.21,537,1060.21Z"/><path id="F1" class="bha-2" d="M3685,1374.36v87a5.81,5.81,0,0,0-.76-.54,2,2,0,0,0-.32.35c-1,2-.71,4.23-.81,6.36-.34,6.82-.31,6.82-7.11,6.82H2869.12a29.66,29.66,0,0,1-4,0c-3.33-.46-4.23.85-4,4.14,1.13,14.45,2,28.9,3.81,43.3,4.62,37.34,12.94,73.68,28.47,108.15,19.1,42.39,48.78,75,89.42,97.74,28.39,15.85,59,25.15,90.91,30.17,37.41,5.86,75,7,112.56,2.21,59.22-7.54,110.19-32.82,153.67-73.5,20.7-19.37,37.86-41.17,46.63-68.61,1.09-3.41,3.38-2.56,5.51-2.56q133,0,266-.1c4,0,4.69.62,3.4,4.55-16.09,48.8-36.19,95.81-62.45,140.07-28.64,48.3-63.58,91.36-108,126-73.56,57.51-158.26,88.39-249.78,102.39q-28.41,4.35-57.09,6.25c-1,.07-3.43-1.16-3.18,1.73H3081c.11-.13.22-.26.31-.39s.22-.35.19-.37c-1.39-1.22-3.14-.94-4.76-1a669,669,0,0,1-100.78-14.21c-59.12-13-115-34.35-166.94-65.52-89.39-53.63-154.38-129.23-199-222.88-32.53-68.32-51.19-140.43-58.21-215.68-5.93-63.49-5-126.75,5.07-189.81,10.65-66.74,31.09-130.26,62.34-190.22,33-63.25,76.33-118.41,131-164.12,88.17-73.67,189.46-117.41,303.92-129.85,58.24-6.33,116.38-5.67,174.39,3,58.46,8.78,113.92,26.3,165.77,55,58.87,32.52,109.87,74.13,151.95,126.49,44.55,55.51,77.11,117.5,99.79,184.82a729.17,729.17,0,0,1,33.21,150.82c1.83,16.06,3.28,32.15,4.11,48.29C3683.38,1371.93,3682.37,1374.07,3685,1374.36Zm-570-98.5h245.44a29.66,29.66,0,0,1,4,0c4.28.62,5.67-.89,4.51-5.19-1.22-4.48-2-9.1-3-13.65-8.88-40.46-21.66-79.46-41.66-116-30.84-56.33-77.18-90.83-140.67-102a380.73,380.73,0,0,0-85.5-4.71c-44.35,2.28-85.85,13.2-123.8,37.12q-60.43,38.1-89,103.12c-13.39,30.21-20,62.3-23.7,95-.71,6.27-.74,6.27,5.53,6.27Z"/><path id="SF1" class="bha-2" d="M4393.42,1374.36v87a6.56,6.56,0,0,0-.76-.54,2,2,0,0,0-.32.35c-1,2-.71,4.23-.81,6.36-.34,6.82-.31,6.82-7.11,6.82H3577.54a29.66,29.66,0,0,1-4,0c-3.33-.46-4.23.85-4,4.14,1.13,14.45,2,28.9,3.81,43.3,4.62,37.34,12.94,73.68,28.47,108.15,19.1,42.39,48.78,75,89.42,97.74,28.39,15.85,59,25.15,90.91,30.17,37.41,5.86,75,7,112.56,2.21,59.22-7.54,110.19-32.82,153.67-73.5,20.7-19.37,37.86-41.17,46.63-68.61,1.09-3.41,3.38-2.56,5.51-2.56q133,0,265.95-.1c4,0,4.69.62,3.4,4.55-16.09,48.8-36.19,95.81-62.45,140.07-28.64,48.3-63.58,91.36-108,126-73.56,57.51-158.26,88.39-249.78,102.39q-28.41,4.35-57.09,6.25c-1,.07-3.43-1.16-3.18,1.73h-100c.11-.13.22-.26.31-.39s.22-.35.19-.37c-1.39-1.22-3.14-.94-4.76-1a668.6,668.6,0,0,1-100.78-14.21c-59.12-13-115-34.35-166.94-65.52-89.39-53.63-154.38-129.23-199-222.88-32.53-68.32-51.19-140.43-58.21-215.68-5.93-63.49-5-126.75,5.07-189.81,10.65-66.74,31.09-130.26,62.34-190.22,33-63.25,76.33-118.41,131-164.12,88.17-73.67,189.46-117.41,303.92-129.85,58.24-6.33,116.38-5.67,174.39,3,58.46,8.78,113.92,26.3,165.77,55,58.87,32.52,109.87,74.13,151.95,126.49,44.55,55.51,77.11,117.5,99.79,184.82a730.47,730.47,0,0,1,33.21,150.82c1.83,16.06,3.28,32.15,4.11,48.29C4391.8,1371.93,4390.79,1374.07,4393.42,1374.36Zm-570-98.5h245.44a29.66,29.66,0,0,1,4,0c4.28.62,5.67-.89,4.51-5.19-1.22-4.48-2-9.1-3-13.65-8.88-40.46-21.66-79.46-41.66-116-30.84-56.33-77.18-90.83-140.67-102a380.76,380.76,0,0,0-85.5-4.71c-44.35,2.28-85.85,13.2-123.8,37.12q-60.43,38.1-89,103.12c-13.39,30.21-20,62.3-23.7,95-.71,6.27-.74,6.27,5.53,6.27Z"/><path id="F2" class="bha-3" d="M3125.54,503.28q155.94,0,311.88-.11c4.74,0,6.08,1,6.07,5.93q-.3,82.47,0,164.94c0,4.71-1.42,5.64-5.83,5.64q-312.13-.16-624.27,0c-4.46,0-5.83-1-5.82-5.67q.25-82.71,0-165.43c0-4.58,1.35-5.4,5.59-5.4Q2969.36,503.36,3125.54,503.28Z"/><path id="SF2" class="bha-3" d="M3125.54.11q155.94,0,311.88-.11c4.74,0,6.08,1,6.07,5.93q-.3,82.47,0,164.94c0,4.71-1.42,5.64-5.83,5.64q-312.13-.16-624.27,0c-4.46,0-5.83-1-5.82-5.67q.25-82.71,0-165.43c0-4.58,1.35-5.4,5.59-5.4Q2969.36.19,3125.54.11Z"/></g></g></g></g></svg>