<svg xmlns="http://www.w3.org/2000/svg" viewBox="0 0 798.06 647.28"><defs><style>.bld-1{fill:#292929;}</style></defs><g id="Layer_2" data-name="Layer 2"><g id="Layer_1-2" data-name="Layer 1"><path class="bld-1" d="M246.49,389.35c-2.34,1.8-3.77,2.83-5.14,3.95Q165.66,455.13,90,517c-14.64,11.95-31.2,17.95-50.38,16.72A42,42,0,0,1,.66,484.4C3.88,466.2,13.6,452.19,28,441.13q54.31-41.69,108.71-83.32,87.08-66.75,174.13-133.55c1.37-1,2.62-2.26,3.93-3.4-.14-.46-.28-.92-.41-1.38h-6.18c-52.16,0-104.33.16-156.49-.16a47.67,47.67,0,0,1-18.28-4.22c-18.77-8.22-24.81-28.26-14-45.92,9.66-15.84,24.52-24.07,42.46-26.88a120.57,120.57,0,0,1,18.44-.94q150.75-.15,301.5-.16H488l.47-1.32c-1.27-1.16-2.47-2.39-3.8-3.48q-48.86-39.75-97.72-79.5c-17.6-14.38-16.65-34.46,2-47.53S434.11-3,452.06,10.71q123.16,94.46,246.29,189c47.13,36.25,79.88,82.45,93.21,140.85,16.71,73.2,1,139.91-44.6,199.12-41,53.2-95.54,86.08-160.83,100-88.28,18.82-170.25,3.28-243.28-50.93-45.5-33.77-76.71-78.17-91.86-133.26a155.65,155.65,0,0,1-4.51-62.3C246.58,392.35,246.49,391.54,246.49,389.35Zm281.4-170.1c-45.1.25-80,10.28-111,32.15C379.2,278,355.64,313.8,351.07,360.19c-4.25,43.12,9.31,81.06,39,112.51,38.4,40.67,86.37,57.72,141.83,54.67,38.79-2.13,73.46-15.21,103.29-40.15,32.37-27.07,51.84-61.45,55-103.88,2.58-35.38-7-67.78-28.63-96C626.1,241.16,577.9,220.7,527.89,219.25Z"/><path class="bld-1" d="M416.22,365.57c.48-21.58,9.37-42.9,26.5-60.74C484.92,260.88,560,260,603.23,302.78c38.3,37.92,37.95,95.44-.8,132.9-45.88,44.35-125,40.08-165.14-8.91C423.7,410.17,416.19,389.52,416.22,365.57Z"/></g></g></svg>