<svg xmlns="http://www.w3.org/2000/svg" viewBox="0 0 438 408"><defs><style>.bok-1{fill:none;stroke:#292929;stroke-linecap:round;stroke-linejoin:round;stroke-width:10px;}</style></defs><g id="Layer_2" data-name="Layer 2"><g id="Layer_1-2" data-name="Layer 1"><path class="bok-1" d="M433,109V353.1c0,27.56-20.83,49.9-46.52,49.9h-335C25.83,403,5,380.66,5,353.1V109"/><path class="bok-1" d="M376,40.13,400.28,48V376l-36.91-14.47A145.67,145.67,0,0,0,258.42,361L219,376l-40.33-15.18a145.65,145.65,0,0,0-105,.92L37.72,376V48L62,40.13A219,219,0,0,1,204.11,42.6L219,48V344l136-35V5L235,43"/><line class="bok-1" x1="243" y1="88.59" x2="334" y2="60"/><line class="bok-1" x1="243" y1="129.99" x2="334" y2="101.4"/><line class="bok-1" x1="243" y1="171.39" x2="334" y2="142.8"/><line class="bok-1" x1="243" y1="212.79" x2="334" y2="184.2"/><line class="bok-1" x1="243" y1="254.19" x2="334" y2="225.6"/><line class="bok-1" x1="243" y1="295.59" x2="334" y2="267"/><path class="bok-1" d="M67.75,88.59A166.31,166.31,0,0,1,191,91.06"/><path class="bok-1" d="M67.75,131.59A166.31,166.31,0,0,1,191,134.06"/><path class="bok-1" d="M67.75,174.59A166.31,166.31,0,0,1,191,177.06"/><path class="bok-1" d="M67.75,217.59A166.31,166.31,0,0,1,191,220.06"/><path class="bok-1" d="M67.75,260.59A166.31,166.31,0,0,1,191,263.06"/><path class="bok-1" d="M67.75,303.59A166.31,166.31,0,0,1,191,306.06"/></g></g></svg>