<svg xmlns="http://www.w3.org/2000/svg" viewBox="0 0 570.23 44.71"><defs><style>.tch-1{fill:#292929;}</style></defs><g id="Layer_2" data-name="Layer 2"><g id="Layer_3" data-name="Layer 3"><circle class="tch-1" cx="117.96" cy="41.21" r="3.5"/><circle class="tch-1" cx="108.58" cy="41.21" r="3.5"/><circle class="tch-1" cx="99.19" cy="41.21" r="3.5"/><circle class="tch-1" cx="89.81" cy="41.21" r="3.5"/><circle class="tch-1" cx="80.42" cy="41.21" r="3.5"/><circle class="tch-1" cx="71.04" cy="41.21" r="3.5"/><circle class="tch-1" cx="61.65" cy="41.21" r="3.5"/><circle class="tch-1" cx="52.27" cy="41.21" r="3.5"/><circle class="tch-1" cx="117.96" cy="31.79" r="3.5"/><circle class="tch-1" cx="108.58" cy="31.79" r="3.5"/><circle class="tch-1" cx="99.19" cy="31.79" r="3.5"/><circle class="tch-1" cx="89.81" cy="31.79" r="3.5"/><circle class="tch-1" cx="80.42" cy="31.79" r="3.5"/><circle class="tch-1" cx="71.04" cy="31.79" r="3.5"/><circle class="tch-1" cx="61.65" cy="31.79" r="3.5"/><circle class="tch-1" cx="52.27" cy="31.79" r="3.5"/><circle class="tch-1" cx="99.19" cy="22.36" r="3.5"/><circle class="tch-1" cx="89.81" cy="22.36" r="3.5"/><circle class="tch-1" cx="80.42" cy="22.36" r="3.5"/><circle class="tch-1" cx="71.04" cy="22.36" r="3.5"/><circle class="tch-1" cx="61.65" cy="22.36" r="3.5"/><circle class="tch-1" cx="89.81" cy="12.93" r="3.5"/><circle class="tch-1" cx="80.42" cy="12.93" r="3.5"/><circle class="tch-1" cx="71.04" cy="12.93" r="3.5"/><circle class="tch-1" cx="136.73" cy="41.21" r="3.5"/><circle class="tch-1" cx="136.73" cy="31.79" r="3.5"/><circle class="tch-1" cx="136.73" cy="22.36" r="3.5"/><circle class="tch-1" cx="136.73" cy="12.93" r="3.5"/><circle class="tch-1" cx="146.73" cy="41.21" r="3.5"/><circle class="tch-1" cx="146.73" cy="31.79" r="3.5"/><circle class="tch-1" cx="146.73" cy="22.36" r="3.5"/><circle class="tch-1" cx="146.73" cy="12.93" r="3.5"/><circle class="tch-1" cx="146.73" cy="3.5" r="3.5"/><circle class="tch-1" cx="156.73" cy="41.21" r="3.5"/><circle class="tch-1" cx="156.73" cy="31.79" r="3.5"/><circle class="tch-1" cx="156.73" cy="22.36" r="3.5"/><circle class="tch-1" cx="156.73" cy="12.93" r="3.5"/><circle class="tch-1" cx="156.73" cy="3.5" r="3.5"/><circle class="tch-1" cx="166.73" cy="41.21" r="3.5"/><circle class="tch-1" cx="166.73" cy="31.79" r="3.5"/><circle class="tch-1" cx="166.73" cy="22.36" r="3.5"/><circle class="tch-1" cx="166.73" cy="12.93" r="3.5"/><circle class="tch-1" cx="166.73" cy="3.5" r="3.5"/><circle class="tch-1" cx="176.73" cy="41.21" r="3.5"/><circle class="tch-1" cx="176.73" cy="31.79" r="3.5"/><circle class="tch-1" cx="176.73" cy="22.36" r="3.5"/><circle class="tch-1" cx="176.73" cy="12.93" r="3.5"/><circle class="tch-1" cx="176.73" cy="3.5" r="3.5"/><circle class="tch-1" cx="186.73" cy="41.21" r="3.5"/><circle class="tch-1" cx="186.73" cy="31.79" r="3.5"/><circle class="tch-1" cx="186.73" cy="22.36" r="3.5"/><circle class="tch-1" cx="186.73" cy="12.93" r="3.5"/><circle class="tch-1" cx="196.73" cy="41.21" r="3.5"/><circle class="tch-1" cx="196.73" cy="31.79" r="3.5"/><circle class="tch-1" cx="196.73" cy="22.36" r="3.5"/><circle class="tch-1" cx="196.73" cy="12.93" r="3.5"/><circle class="tch-1" cx="206.73" cy="41.21" r="3.5"/><circle class="tch-1" cx="206.73" cy="31.79" r="3.5"/><circle class="tch-1" cx="206.73" cy="22.36" r="3.5"/><circle class="tch-1" cx="206.73" cy="12.93" r="3.5"/><circle class="tch-1" cx="216.73" cy="41.21" r="3.5"/><circle class="tch-1" cx="216.73" cy="31.79" r="3.5"/><circle class="tch-1" cx="216.73" cy="22.36" r="3.5"/><circle class="tch-1" cx="216.73" cy="12.93" r="3.5"/><circle class="tch-1" cx="226.73" cy="41.21" r="3.5"/><circle class="tch-1" cx="226.73" cy="31.79" r="3.5"/><circle class="tch-1" cx="236.73" cy="41.21" r="3.5"/><circle class="tch-1" cx="236.73" cy="31.79" r="3.5"/><circle class="tch-1" cx="246.73" cy="41.21" r="3.5"/><circle class="tch-1" cx="246.73" cy="31.79" r="3.5"/><circle class="tch-1" cx="246.73" cy="22.36" r="3.5"/><circle class="tch-1" cx="256.73" cy="41.21" r="3.5"/><circle class="tch-1" cx="256.73" cy="31.79" r="3.5"/><circle class="tch-1" cx="266.73" cy="41.21" r="3.5"/><circle class="tch-1" cx="266.73" cy="31.79" r="3.5"/><circle class="tch-1" cx="276.73" cy="41.21" r="3.5"/><circle class="tch-1" cx="276.73" cy="31.79" r="3.5"/><circle class="tch-1" cx="286.73" cy="41.21" r="3.5"/><circle class="tch-1" cx="286.73" cy="31.79" r="3.5"/><circle class="tch-1" cx="296.73" cy="41.21" r="3.5"/><circle class="tch-1" cx="296.73" cy="31.79" r="3.5"/><circle class="tch-1" cx="296.73" cy="22.36" r="3.5"/><circle class="tch-1" cx="296.73" cy="12.93" r="3.5"/><circle class="tch-1" cx="306.73" cy="41.21" r="3.5"/><circle class="tch-1" cx="306.73" cy="31.79" r="3.5"/><circle class="tch-1" cx="306.73" cy="22.36" r="3.5"/><circle class="tch-1" cx="306.73" cy="12.93" r="3.5"/><circle class="tch-1" cx="316.73" cy="41.21" r="3.5"/><circle class="tch-1" cx="316.73" cy="31.79" r="3.5"/><circle class="tch-1" cx="316.73" cy="22.36" r="3.5"/><circle class="tch-1" cx="316.73" cy="12.93" r="3.5"/><circle class="tch-1" cx="326.73" cy="41.21" r="3.5"/><circle class="tch-1" cx="326.73" cy="31.79" r="3.5"/><circle class="tch-1" cx="326.73" cy="22.36" r="3.5"/><circle class="tch-1" cx="326.73" cy="12.93" r="3.5"/><circle class="tch-1" cx="336.73" cy="41.21" r="3.5"/><circle class="tch-1" cx="336.73" cy="31.79" r="3.5"/><circle class="tch-1" cx="336.73" cy="22.36" r="3.5"/><circle class="tch-1" cx="336.73" cy="12.93" r="3.5"/><circle class="tch-1" cx="336.73" cy="3.5" r="3.5"/><circle class="tch-1" cx="346.73" cy="41.21" r="3.5"/><circle class="tch-1" cx="346.73" cy="31.79" r="3.5"/><circle class="tch-1" cx="346.73" cy="22.36" r="3.5"/><circle class="tch-1" cx="346.73" cy="12.93" r="3.5"/><circle class="tch-1" cx="346.73" cy="3.5" r="3.5"/><circle class="tch-1" cx="356.73" cy="41.21" r="3.5"/><circle class="tch-1" cx="356.73" cy="31.79" r="3.5"/><circle class="tch-1" cx="356.73" cy="22.36" r="3.5"/><circle class="tch-1" cx="356.73" cy="12.93" r="3.5"/><circle class="tch-1" cx="356.73" cy="3.5" r="3.5"/><circle class="tch-1" cx="366.73" cy="41.21" r="3.5"/><circle class="tch-1" cx="366.73" cy="31.79" r="3.5"/><circle class="tch-1" cx="366.73" cy="22.36" r="3.5"/><circle class="tch-1" cx="366.73" cy="12.93" r="3.5"/><circle class="tch-1" cx="366.73" cy="3.5" r="3.5"/><circle class="tch-1" cx="376.73" cy="41.21" r="3.5"/><circle class="tch-1" cx="376.73" cy="31.79" r="3.5"/><circle class="tch-1" cx="376.73" cy="22.36" r="3.5"/><circle class="tch-1" cx="376.73" cy="12.93" r="3.5"/><circle class="tch-1" cx="376.73" cy="3.5" r="3.5"/><circle class="tch-1" cx="386.73" cy="41.21" r="3.5"/><circle class="tch-1" cx="386.73" cy="31.79" r="3.5"/><circle class="tch-1" cx="386.73" cy="22.36" r="3.5"/><circle class="tch-1" cx="386.73" cy="12.93" r="3.5"/><circle class="tch-1" cx="396.73" cy="41.21" r="3.5"/><circle class="tch-1" cx="396.73" cy="31.79" r="3.5"/><circle class="tch-1" cx="396.73" cy="22.36" r="3.5"/><circle class="tch-1" cx="406.73" cy="41.21" r="3.5"/><circle class="tch-1" cx="406.73" cy="31.79" r="3.5"/><circle class="tch-1" cx="406.73" cy="22.36" r="3.5"/><circle class="tch-1" cx="416.73" cy="41.21" r="3.5"/><circle class="tch-1" cx="416.73" cy="31.79" r="3.5"/><circle class="tch-1" cx="416.73" cy="22.36" r="3.5"/><circle class="tch-1" cx="426.73" cy="41.21" r="3.5"/><circle class="tch-1" cx="426.73" cy="31.79" r="3.5"/><circle class="tch-1" cx="426.73" cy="22.36" r="3.5"/><circle class="tch-1" cx="436.73" cy="41.21" r="3.5"/><circle class="tch-1" cx="436.73" cy="31.79" r="3.5"/><circle class="tch-1" cx="436.73" cy="22.36" r="3.5"/><circle class="tch-1" cx="436.73" cy="12.93" r="3.5"/><circle class="tch-1" cx="446.73" cy="41.21" r="3.5"/><circle class="tch-1" cx="446.73" cy="31.79" r="3.5"/><circle class="tch-1" cx="446.73" cy="22.36" r="3.5"/><circle class="tch-1" cx="446.73" cy="12.93" r="3.5"/><circle class="tch-1" cx="456.73" cy="41.21" r="3.5"/><circle class="tch-1" cx="456.73" cy="31.79" r="3.5"/><circle class="tch-1" cx="456.73" cy="22.36" r="3.5"/><circle class="tch-1" cx="456.73" cy="12.93" r="3.5"/><circle class="tch-1" cx="466.73" cy="41.21" r="3.5"/><circle class="tch-1" cx="466.73" cy="31.79" r="3.5"/><circle class="tch-1" cx="466.73" cy="22.36" r="3.5"/><circle class="tch-1" cx="466.73" cy="12.93" r="3.5"/><circle class="tch-1" cx="466.73" cy="3.5" r="3.5"/><circle class="tch-1" cx="476.73" cy="41.21" r="3.5"/><circle class="tch-1" cx="476.73" cy="31.79" r="3.5"/><circle class="tch-1" cx="476.73" cy="22.36" r="3.5"/><circle class="tch-1" cx="476.73" cy="12.93" r="3.5"/><circle class="tch-1" cx="486.73" cy="41.21" r="3.5"/><circle class="tch-1" cx="486.73" cy="31.79" r="3.5"/><circle class="tch-1" cx="486.73" cy="22.36" r="3.5"/><circle class="tch-1" cx="486.73" cy="12.93" r="3.5"/><circle class="tch-1" cx="496.73" cy="41.21" r="3.5"/><circle class="tch-1" cx="496.73" cy="31.79" r="3.5"/><circle class="tch-1" cx="496.73" cy="22.36" r="3.5"/><circle class="tch-1" cx="496.73" cy="12.93" r="3.5"/><circle class="tch-1" cx="496.73" cy="3.5" r="3.5"/><circle class="tch-1" cx="506.73" cy="41.21" r="3.5"/><circle class="tch-1" cx="506.73" cy="31.79" r="3.5"/><circle class="tch-1" cx="506.73" cy="22.36" r="3.5"/><circle class="tch-1" cx="506.73" cy="12.93" r="3.5"/><circle class="tch-1" cx="506.73" cy="3.5" r="3.5"/><circle class="tch-1" cx="516.73" cy="41.21" r="3.5"/><circle class="tch-1" cx="516.73" cy="31.79" r="3.5"/><circle class="tch-1" cx="516.73" cy="22.36" r="3.5"/><circle class="tch-1" cx="516.73" cy="12.93" r="3.5"/><circle class="tch-1" cx="516.73" cy="3.5" r="3.5"/><circle class="tch-1" cx="526.73" cy="41.21" r="3.5"/><circle class="tch-1" cx="526.73" cy="31.79" r="3.5"/><circle class="tch-1" cx="526.73" cy="22.36" r="3.5"/><circle class="tch-1" cx="526.73" cy="12.93" r="3.5"/><circle class="tch-1" cx="526.73" cy="3.5" r="3.5"/><circle class="tch-1" cx="536.73" cy="41.21" r="3.5"/><circle class="tch-1" cx="536.73" cy="31.79" r="3.5"/><circle class="tch-1" cx="536.73" cy="22.36" r="3.5"/><circle class="tch-1" cx="536.73" cy="12.93" r="3.5"/><circle class="tch-1" cx="546.73" cy="41.21" r="3.5"/><circle class="tch-1" cx="546.73" cy="31.79" r="3.5"/><circle class="tch-1" cx="546.73" cy="22.36" r="3.5"/><circle class="tch-1" cx="556.73" cy="41.21" r="3.5"/><circle class="tch-1" cx="556.73" cy="31.79" r="3.5"/><circle class="tch-1" cx="556.73" cy="22.36" r="3.5"/><circle class="tch-1" cx="566.73" cy="41.21" r="3.5"/><circle class="tch-1" cx="566.73" cy="31.79" r="3.5"/><circle class="tch-1" cx="566.73" cy="22.36" r="3.5"/><circle class="tch-1" cx="127.35" cy="41.21" r="3.5"/><circle class="tch-1" cx="127.35" cy="31.79" r="3.5"/><circle class="tch-1" cx="127.35" cy="22.36" r="3.5"/><circle class="tch-1" cx="127.35" cy="12.93" r="3.5"/><circle class="tch-1" cx="71.04" cy="3.5" r="3.5"/><circle class="tch-1" cx="42.88" cy="41.21" r="3.5"/><circle class="tch-1" cx="42.88" cy="31.79" r="3.5"/><circle class="tch-1" cx="42.88" cy="22.36" r="3.5"/><circle class="tch-1" cx="42.88" cy="12.93" r="3.5"/><circle class="tch-1" cx="33.5" cy="41.21" r="3.5"/><circle class="tch-1" cx="33.5" cy="31.79" r="3.5"/><circle class="tch-1" cx="33.5" cy="22.36" r="3.5"/><circle class="tch-1" cx="33.5" cy="12.93" r="3.5"/><circle class="tch-1" cx="23.5" cy="41.21" r="3.5"/><circle class="tch-1" cx="23.5" cy="31.79" r="3.5"/><circle class="tch-1" cx="23.5" cy="22.36" r="3.5"/><circle class="tch-1" cx="23.5" cy="12.93" r="3.5"/><circle class="tch-1" cx="23.5" cy="3.5" r="3.5"/><circle class="tch-1" cx="13.5" cy="41.21" r="3.5"/><circle class="tch-1" cx="13.5" cy="31.79" r="3.5"/><circle class="tch-1" cx="13.5" cy="22.36" r="3.5"/><circle class="tch-1" cx="3.5" cy="41.21" r="3.5"/><circle class="tch-1" cx="3.5" cy="31.79" r="3.5"/><circle class="tch-1" cx="3.5" cy="22.36" r="3.5"/></g></g></svg>