<svg xmlns="http://www.w3.org/2000/svg" viewBox="0 0 468.21 374.52"><defs><style>.cls-1{fill:#e9e7e7;}</style></defs><g id="Layer_2" data-name="Layer 2"><g id="Layer_1-2" data-name="Layer 1"><path class="cls-1" d="M97.35,69.58c11.44,2.22,21-3.46,24.76-14.49,4.36-12.94,8.62-25.9,13-38.85C139,4.5,145.24,0,157.69,0h153C323,0,329.25,4.56,333.19,16.35l12.52,37.41c3.83,11.42,10.72,16.47,22.61,16.48,17.33,0,34.66,0,52,0,27.55,0,47.84,20.09,47.86,47.5q.1,104.72,0,209.43c0,26.28-19.31,46.16-45.6,47.22-1.33.06-2.67.06-4,.06q-184.44,0-368.88.06c-15.4,0-28.44-4.74-38.56-16.52-7.09-8.25-11-17.85-11-28.77C0,258.09-.09,186.94.12,115.8c.07-25,20.65-45.18,45.75-45.46,4.13,0,6.38-.53,6.31-5.53S56,56.46,61,56.35q13.49-.32,27,0c5.09.13,8.5,3.8,9,8.95C97.14,66.76,97.24,68.22,97.35,69.58Zm254.09,141c1.87-60.67-57.86-120.85-122.27-117.36A118.42,118.42,0,0,0,116.86,218.52c3.41,62,58.79,112.35,121.41,109.51C305.11,325,352,270,351.44,210.54ZM406,134.28c7,0,14,.07,21,0,8.23-.1,14.08-5.63,14-13.09-.06-7.13-5.89-12.8-13.81-12.89q-21.22-.24-42.46,0c-7.84.1-13.64,6-13.53,13.14s6,12.7,13.83,12.82C392,134.36,399,134.28,406,134.28Z"/><path class="cls-1" d="M234.38,128.09a82.52,82.52,0,0,1,82.46,83.3c-.15,45.2-37.45,82-83,81.81-46.69-.16-83.16-37.31-82.4-85.37C152.11,165,188.41,127.62,234.38,128.09Z"/></g></g></svg>