<svg xmlns="http://www.w3.org/2000/svg" xmlns:xlink="http://www.w3.org/1999/xlink" viewBox="0 0 1920 1920"><defs><style>.cat-1,.cat-10,.cat-2,.cat-5{fill:#fff;}.cat-1{filter:url(#luminosity-invert-noclip);}.cat-2{stroke:#fff;}.cat-15,.cat-2{stroke-miterlimit:10;}.cat-10,.cat-15,.cat-2,.cat-7,.cat-8,.cat-9{stroke-width:10px;}.cat-17,.cat-3,.cat-7{fill:none;}.cat-4{mask:url(#mask);}.cat-6{fill:#f2ae66;}.cat-10,.cat-15,.cat-17,.cat-7,.cat-8,.cat-9{stroke:#292929;}.cat-10,.cat-17,.cat-7,.cat-8,.cat-9{stroke-linecap:round;stroke-linejoin:round;}.cat-15,.cat-8{fill:#4d4d4d;}.cat-9{fill:#87ddf1;}.cat-11{fill:#76564a;}.cat-12{fill:url(#radial-gradient);}.cat-13{fill:url(#radial-gradient-2);}.cat-14{mask:url(#mask-2);}.cat-16{mask:url(#mask-3);}.cat-17{stroke-width:6px;}.cat-18{fill:#292929;}</style><filter id="luminosity-invert-noclip" x="282" y="1061" width="1192" height="651" filterUnits="userSpaceOnUse" color-interpolation-filters="sRGB"><feColorMatrix values="-1 0 0 0 1 0 -1 0 0 1 0 0 -1 0 1 0 0 0 1 0" result="invert"/><feFlood flood-color="#fff" result="bg"/><feBlend in="invert" in2="bg"/></filter><mask id="mask" x="282" y="1061" width="1192" height="651" maskUnits="userSpaceOnUse"><rect class="cat-1" x="282" y="1479" width="1192" height="233"/></mask><radialGradient id="radial-gradient" cx="1227.5" cy="1006" r="105.1" gradientTransform="translate(0 749.55) scale(1 0.25)" gradientUnits="userSpaceOnUse"><stop offset="0.07" stop-color="#fbd5db"/><stop offset="0.08" stop-color="#fbd3d9"/><stop offset="0.22" stop-color="#fbb9c3"/><stop offset="0.35" stop-color="#fba9b5"/><stop offset="0.44" stop-color="#fba3b0"/><stop offset="0.5" stop-color="#fba3b0" stop-opacity="0.94"/><stop offset="0.6" stop-color="#fba3b0" stop-opacity="0.78"/><stop offset="0.74" stop-color="#fba3b0" stop-opacity="0.53"/><stop offset="0.91" stop-color="#fba3b0" stop-opacity="0.19"/><stop offset="1" stop-color="#fba3b0" stop-opacity="0"/></radialGradient><radialGradient id="radial-gradient-2" cx="716.5" r="105.1" xlink:href="#radial-gradient"/><mask id="mask-2" x="995" y="747" width="315" height="286" maskUnits="userSpaceOnUse"><path id="Eye_R_Mask" class="cat-2" d="M1041.55,876.44l212.61-56.72S1268,849,1267,879c-.58,17.45-9,54-57,77-32,15.31-86,19-131-6C1035.07,925.6,1041.55,876.44,1041.55,876.44Z"/></mask><mask id="mask-3" x="653" y="747" width="315" height="286" maskUnits="userSpaceOnUse"><path id="Eye_L_Mask" class="cat-2" d="M921.45,876.44,708.84,819.72S695,849,696,879c.58,17.45,9,54,57,77,32,15.31,86,19,131-6C927.93,925.6,921.45,876.44,921.45,876.44Z"/></mask></defs><g id="Margin"><rect class="cat-3" width="1920" height="1920"/></g><g class="cat-4"><g id="BODY"><g id="Tail"><path id="Tail_Matte" data-name="Tail Matte" class="cat-5" d="M723,1403c-28-7-85-10-117,8s-85,36.21-99,55.1,40,63.9,69,77.9,176,13,220-62C813.7,1451.83,751,1410,723,1403Z"/><path id="Taill_Color" data-name="Taill Color" class="cat-6" d="M562,1432s51.35-28.32,76.17-31.66,57.31-3.72,70.83,6.66,54,31,28,41-68.07,32-116,35C556,1487,562,1432,562,1432Z"/><path id="Tail_Outline" data-name="Tail Outline" class="cat-7" d="M723,1403c-28-7-85-10-117,8s-85,36.21-99,55.1,40,63.9,69,77.9,176,13,220-62C813.7,1451.83,751,1410,723,1403Z"/></g><g id="Body_BG" data-name="Body BG"><path id="Body_Matte" data-name="Body Matte" class="cat-5" d="M669,1497.14s3-65,9-99.14c10-57,29.08-108.23,38.5-156,4.85-24.57,27.12-176,27.12-176h460.55s-4.17,123,8.83,207c4.53,29.25,17.8,72.68,20,121,2,44,1,113,1,113"/><path class="cat-6" d="M694.85,1326S778,1320.3,790,1281c14-46-1-98-14-106s-47.28-15.93-47.28-15.93L716,1246Z"/><path id="Body_Outline" data-name="Body Outline" class="cat-7" d="M669,1497.14s3-65,9-99.14c10-57,29.08-108.23,38.5-156,4.85-24.57,27.12-176,27.12-176h460.55s-4.17,123,8.83,207c4.53,29.25,17.8,72.68,20,121,2,44,1,113,1,113"/></g><path class="cat-7" d="M1191,1266s9.19,69.8,5,115c-5,54-1,126-1,126"/><path class="cat-7" d="M1034,1336s8.43,89,7.22,114,0,57,0,57"/><g id="Neck_lade_" data-name="Neck(lade)"><path class="cat-8" d="M978,1242c191,0,249.5-106.1,249.5-106.1h-511S716,1242,978,1242Z"/><circle class="cat-9" cx="988.5" cy="1242.5" r="38.5"/></g></g></g><g id="HEAD"><g id="Ear_BG" data-name="Ear BG"><path id="Ear_BG_line" data-name="Ear BG line" class="cat-10" d="M960,594.66,1355,490s14.93,78.43,0,168c-13,78-66.79,241-374,241-209,0-331,0-402-185-42.4-110.47-14-196-14-196Z"/><rect id="Ear_RectBox" data-name="Ear RectBox" class="cat-3" x="471" y="403" width="994" height="509"/></g><g id="FACE_BG" data-name="FACE BG"><rect id="HEAD_Margin" class="cat-3" x="357.5" y="253.35" width="1228" height="1228"/><path id="Face_Matte" data-name="Face Matte" class="cat-5" d="M1098.12,558c130.79,47.41,177.16,174.84,210.38,308.53,92,94,46.5,237.5-103,294-95.66,36.15-264.62,46-386.5,24.5-317-56-231.5-267.5-187.5-305.5-10-80.4,64.77-240.3,204.59-308.72"/><path class="cat-6" d="M1002,791l51,99,41.13-11.17L1177,867l83.43-1.45,63.11,18.51-15-17.56s-27.29-126.63-65.39-181.06S1153,536,975.5,538.5s-206.5,77-275,147.73-69,193.27-69,193.27l129.19-25.72L823,867l72.93,6.27L925,890Z"/><path class="cat-11" d="M999.34,694.5l36.52-151.83S990,537.9,968,538.45,899,548,899,548Z"/><path class="cat-11" d="M836.35,570.66S847,616,778,707c-66.1,87.18-140.7,108.42-140.7,108.42S663.21,716.07,718.1,664,836.35,570.66,836.35,570.66Z"/><path class="cat-11" d="M1161,692l7-100s29,32.61,41.5,46.31,27.61,36.92,27.61,36.92Z"/><polygon class="cat-11" points="1250 830 1277.6 761.83 1306.01 856.59 1250 830"/><ellipse id="Pinky_L" class="cat-12" cx="1227.5" cy="1006" rx="102.5" ry="27"/><ellipse id="Pinky_R" class="cat-13" cx="716.5" cy="1006" rx="102.5" ry="27"/><path id="Face_OutLine" data-name="Face OutLine" class="cat-7" d="M1098.12,558c130.79,47.41,177.16,174.84,210.38,308.53,92,94,46.5,237.5-103,294-95.66,36.15-264.62,46-386.5,24.5-317-56-231.5-267.5-187.5-305.5-10-80.4,64.77-240.3,204.59-308.72"/></g><g id="Ear_F_L" data-name="Ear F_L"><path id="Ear_Color" data-name="Ear Color" class="cat-6" d="M1219,615c116.4-42.68,136-125,136-125l-291,77S1069,670,1219,615Z"/><path id="Ear_Line" data-name="Ear Line" class="cat-7" d="M1340.58,521.82S1308,572,1257,598c-72.54,37-116.14,33.16-116.14,33.16"/><rect id="Ear_RectBox-2" data-name="Ear RectBox" class="cat-3" x="471" y="403" width="994" height="509"/></g><g id="Ear_F_R" data-name="Ear F_R"><path id="Ear_Color-2" data-name="Ear Color" class="cat-11" d="M710,636C594.45,591.07,565,518,565,518l271,53S818,678,710,636Z"/><path id="Ear_Line-2" data-name="Ear Line" class="cat-7" d="M584.85,552.84S632.92,606.19,681,624a562.86,562.86,0,0,0,101.52,27"/><rect id="Ear_RectBox-3" data-name="Ear RectBox" class="cat-3" x="471" y="403" width="994" height="509"/></g><g id="Ear_F.Mask" data-name="Ear F.Mask"><path id="Face_BG-2" data-name="Face BG" class="cat-7" d="M565,518l271.35,52.66S898,538.5,975.5,538.5,1098.26,558,1098.26,558L1355,490"/><rect id="HEAD_Margin-2" data-name="HEAD_Margin" class="cat-3" x="357.5" y="253.35" width="1228" height="1228"/></g><g class="cat-14"><g id="Eye_L"><rect id="Eye_Box" data-name="Eye Box" class="cat-3" x="995" y="747" width="315" height="286"/><path id="Eye_Matte" data-name="Eye Matte" class="cat-5" d="M1041.55,876.44l212.61-56.72S1268,849,1267,879c-.58,17.45-9,54-57,77-32,15.31-86,19-131-6C1035.07,925.6,1041.55,876.44,1041.55,876.44Z"/><circle id="EyeBall_L" class="cat-15" cx="1137" cy="845" r="39"/><path id="Eye_Outline" data-name="Eye Outline" class="cat-7" d="M1041.55,876.44l212.61-56.72S1268,849,1267,879c-.58,17.45-9,54-57,77-32,15.31-86,19-131-6C1035.07,925.6,1041.55,876.44,1041.55,876.44Z"/></g></g><g class="cat-16"><g id="Eye_R"><rect id="Eye_Box-2" data-name="Eye Box" class="cat-3" x="653" y="747" width="315" height="286" transform="translate(1621 1780) rotate(-180)"/><path id="Eye_Matte-2" data-name="Eye Matte" class="cat-5" d="M921.45,876.44,708.84,819.72S695,849,696,879c.58,17.45,9,54,57,77,32,15.31,86,19,131-6C927.93,925.6,921.45,876.44,921.45,876.44Z"/><circle id="EyeBall_R" class="cat-15" cx="819" cy="845" r="39"/><path id="Eye_Outline-2" data-name="Eye Outline" class="cat-7" d="M921.45,876.44,708.84,819.72S695,849,696,879c.58,17.45,9,54,57,77,32,15.31,86,19,131-6C927.93,925.6,921.45,876.44,921.45,876.44Z"/></g></g><line id="EyeBow_L" class="cat-17" x1="1050" y1="826" x2="1020.86" y2="856.59"/><line id="EyeBow_R" class="cat-17" x1="950.99" y1="856.59" x2="929.83" y2="826"/><path id="NOSE" class="cat-18" d="M969,904c2.12-5,30-6,33-3s-10,29-15,29S966,911,969,904Z"/><polyline id="Mouth" class="cat-7" points="955 1043 990 1001 1027 1039"/><g id="Beard_L"><g id="B.1"><path class="cat-18" d="M1295,951c13.34-.72,26.69-.77,40-.41s26.68,1.11,40,2.66c6.65.86,13.24,1.81,19.84,2.86s13.16,2.18,19.7,3.46c13.11,2.48,26.16,5.22,39.1,8.56-13.3-1.29-26.51-3-39.71-4.7-6.61-.83-13.19-1.8-19.79-2.64s-13.17-1.82-19.74-2.58-13.16-1.45-19.77-2-13.23-1.11-19.86-1.7C1321.56,953.38,1308.29,952.34,1295,951Z"/></g><g id="B.1-2" data-name="B.1"><path class="cat-18" d="M1295,989c8.57,1,17.07,2.45,25.55,4s16.92,3.38,25.3,5.48,16.72,4.37,25,7c4.14,1.25,8.2,2.8,12.29,4.24,4,1.61,8.12,3.13,12.08,5,15.71,7.39,30.8,15.65,45.77,24.21s29.68,17.52,44,27.08c-15.39-7.76-30.64-15.73-45.9-23.65-7.65-3.92-15.25-7.93-22.92-11.77l-5.74-2.92-5.76-2.88c-1.91-1-3.85-1.89-5.77-2.83-1-.46-1.92-1-2.89-1.39l-2.9-1.3c-3.81-1.84-7.8-3.36-11.73-5s-8-3-12.05-4.32-8.11-2.71-12.19-4l-6.15-1.86c-2-.65-4.1-1.26-6.16-1.85q-12.35-3.6-24.82-6.85C1311.71,993.17,1303.36,991.08,1295,989Z"/></g><g id="B.1-3" data-name="B.1"><path class="cat-18" d="M1261,1033a328.88,328.88,0,0,1,43.8,20.88c7.08,3.95,14,8.29,20.67,12.88,3.4,2.25,6.61,4.77,9.88,7.21s6.38,5.13,9.43,7.73l18.45,15.61c6.12,5.26,12.32,10.41,18.41,15.7,12.25,10.49,24.44,21.07,36.36,32-13.23-9.29-26.11-19-38.83-29-6.4-4.93-12.66-10-19-15.07s-12.47-10.26-18.66-15.45c-3.07-2.67-6.14-5.18-9.21-7.71s-6.32-4.87-9.59-7.18-6.54-4.6-9.84-6.87-6.7-4.41-10.11-6.53C1289.2,1048.67,1275.22,1040.68,1261,1033Z"/></g></g><g id="Beard_R"><g id="B.1-4" data-name="B.1"><path class="cat-18" d="M637.5,960.5c-15.83,2.11-31.67,3.81-47.51,5.46l-23.74,2.48c-7.91.8-15.82,1.68-23.65,2.7-1.94.3-3.89.53-5.83.87l-5.83,1-11.65,2.34c-7.77,1.6-15.51,3.4-23.26,5.17l-46.53,11c15-5.5,30.21-10.3,45.58-14.64,7.67-2.2,15.42-4.17,23.2-6s15.64-3.45,23.65-4.62,15.91-1.8,23.86-2.55,15.91-1.24,23.88-1.68C605.59,961.05,621.53,960.47,637.5,960.5Z"/></g><g id="B.1-5" data-name="B.1"><path class="cat-18" d="M669,988c-9.13,2.45-18.23,5-27.27,7.63s-18.06,5.38-27,8.33-17.83,6-26.53,9.48a232.75,232.75,0,0,0-25.55,11.47c-2.07,1-4.13,2.18-6.18,3.32s-4.12,2.28-6.16,3.45l-6.13,3.51-6.1,3.54c-8.17,4.7-16.25,9.56-24.38,14.34-16.21,9.65-32.38,19.38-48.7,28.93,15.17-11.29,30.79-22,46.64-32.25s31.94-20.21,48.68-29.25a221.72,221.72,0,0,1,26.2-11.47c8.92-3.3,18-6.21,27.07-8.79s18.3-4.89,27.53-7S659.64,989.37,669,988Z"/></g><g id="B.1-6" data-name="B.1"><path class="cat-18" d="M682,1022c-15.9,8.47-31.53,17.33-46.72,26.84-3.8,2.36-7.52,4.85-11.28,7.27s-7.42,5-11,7.66-7.16,5.3-10.69,8-6.86,5.63-10.28,8.6q-10.35,8.68-20.79,17.25c-7,5.64-14,11.33-21.1,16.85-14.15,11.12-28.47,22-43.14,32.51,13.36-12.09,27-23.85,40.67-35.53l41.13-34.89c3.39-2.9,6.94-5.77,10.49-8.63s7.22-5.52,11-8c7.48-5.13,15.13-10,23-14.4A374.36,374.36,0,0,1,682,1022Z"/></g></g></g><g id="HAND"><path id="Hand_Matte" data-name="Hand Matte" class="cat-5" d="M795.62,1292.31S870,1209,876,1147c-15-11-24-65-16-75s20-6,34-1c5-24,23-58,33-55,15.44,4.63,13,29.41,21,47,23,14,70,44,65,109-2.54,33,1,114-48,196-23.32,39-67,82-129,82"/><path id="Hand_Outline" data-name="Hand Outline" class="cat-7" d="M795.62,1292.31S870,1209,876,1147c-15-11-24-65-16-75s20-6,34-1c5-24,23-58,33-55,15.44,4.63,13,29.41,21,47,23,14,70,44,65,109-2.54,33,1,114-48,196-23.32,39-67,82-129,82-59,0-107-53.13-119-118s12-170,12-170"/></g></svg>