<svg xmlns="http://www.w3.org/2000/svg" viewBox="0 0 50.97 58.15"><defs><style>.ctr-1{fill:#292929;}</style></defs><g id="Layer_2" data-name="Layer 2"><g id="Layer_1-2" data-name="Layer 1"><path class="ctr-1" d="M23.61,27.15l.35.17a4.26,4.26,0,0,0,3.69.53,17,17,0,0,0-2.11-1.67,25.3,25.3,0,0,0-2.33-2.67,5.94,5.94,0,0,1-1.14-1.4.49.49,0,0,1,.09-.61c.23-.2.5-.48.5-.68s.21-.39.55-.77.39-.2.9-.9a11.65,11.65,0,0,1,1.37-1.27,2.81,2.81,0,0,0,.79,1.33,3.91,3.91,0,0,1,.93,1,7.92,7.92,0,0,0,2.17,1.95s1.26.58,1.3.76-.1.37,0,.54a1.56,1.56,0,0,0,.27.47c.14.13.56.89.72,1s.59,0,.68-.06.13-.18.13-.18a.49.49,0,0,0,.31,0,.79.79,0,0,0,.26-.2.55.55,0,0,0,0-.13,1.32,1.32,0,0,0,.37-.24.46.46,0,0,0,.09-.32.24.24,0,0,1,.21-.13c.13,0,.16-.11.13-.24L32,21.8a.31.31,0,0,1-.27-.06,6.67,6.67,0,0,1-.91-1.15l1.15,1,2.1,1.8h0l.32.28a2.48,2.48,0,0,0,.26.19l1.27.76s.07,0,.05-.06L35,23.44l-.23-.24-5.43-4.7c0-.05,0-.1-.05-.15l.05.15-9.47-8.21c.06-.27,0-.39-.13-.48a3.57,3.57,0,0,1-.65-.5c0-.09-.1-.15-.41-.25a4,4,0,0,1-1.08-.5c-.12-.11-.67-1-1.2-1.56l.07,0,.07,0-.7-.61A3.36,3.36,0,0,0,14,6.82c-.53.46-.05,1.49.93,2.4l1.49.63h0a.79.79,0,0,1,.31.24,4.69,4.69,0,0,0,.68.91c0,.07.28.29.3.44s.17.15.43.16.14-.14.14-.14a.52.52,0,0,0,.13.07c.06,0,0,.07.23.06s.27,0,.32-.09a.34.34,0,0,0,0-.22s0,.16.09.19.21,0,.31-.09.06-.17.06-.17a.43.43,0,0,0,.1.1s.09,0,.17-.07l.31.13,3.62,3.1L22,13.18,20,11.51a.61.61,0,0,1-.23.05c-.07,0-.08-.07-.08-.07a.29.29,0,0,0,0,.1c0,.05-.11.07-.17.1a.48.48,0,0,1-.18.07.14.14,0,0,1-.13,0l.95,15.71A3.4,3.4,0,0,1,23.61,27.15Zm7.16-6.56.14.22-2.79-2.34-2-1.9Z"/><path class="ctr-1" d="M42.3,39.44v-.22c0-.06,0-.11,0-.17v0s0,0,0-.07a.88.88,0,0,0,0-.17v0l0-.21,0-.17s0-.06,0-.08,0-.13,0-.2h0a.86.86,0,0,0-.06-.23,1.39,1.39,0,0,0-.08-.23h0a2.53,2.53,0,0,0-.12-.36,4,4,0,0,0-.7-1.2h0a9.4,9.4,0,0,0-6.89-4.27C31.7,31.47,30,30,28.38,28.51a4.76,4.76,0,0,1-2,.5,5.38,5.38,0,0,1-2.62-.79c-1.6-.88-2.29-.54-2.62-.37l-.13.06c-.87.34-.83.58-.81.71a.28.28,0,0,1,0,.23c-.08.09-.21.14-.57,0s-.34-.17-.35-.25a1.29,1.29,0,0,1,.64-1L18.9,11.86h0a1.47,1.47,0,0,1-.32,0l-.07-.08a.17.17,0,0,1-.06.11,1.39,1.39,0,0,1-.61,0c.23.17.5.34.8.52a3.63,3.63,0,0,0-.51,1.66s-.4.62-.62,1c-.47.79-.25,1.16-.55,1.89-.2.48-.43,1.24-.53,1.44s0,.48-.21.82a8.39,8.39,0,0,0-.49,1.07c-.24.56,0,.83-.74,1.72a8.63,8.63,0,0,0-1.48,1.78,3.38,3.38,0,0,0-.24,1.38c0,.31-.31.05-.31.55,0,0,0,.09-.06.15a.18.18,0,0,1-.12.12c-.6.24-1,.4-1.14.8a6,6,0,0,0-.3,2.36,1.94,1.94,0,0,0,1,.6,2.11,2.11,0,0,0,1.33-.36A10.35,10.35,0,0,1,16,28.25c-1.31.49-3,2.06-3.61,1.77l-1-.41h0L7.14,27.9a2.28,2.28,0,0,0-2.78.74,27.06,27.06,0,0,1-1.82,2.79C2.08,32,1,33.22.75,33.51a1.68,1.68,0,0,0-.33,1c0,.23.36.35.24,1.07C.59,36,0,37.1,0,37.53A7.69,7.69,0,0,0,.43,39.6l3.1-2.73-.31-.72C3,35.73,3,35.9,2.73,35.6s.45-.3.53-1-.28-.93.27-1.5h0c.36-.37.7-.8,1.06-1.21h0c.7-.79,1.45-1.48,2.36-1.33.38.23,1.09.76,1.92,1.39a5.45,5.45,0,0,1-.68.05C7.51,32,6,31.76,5,31.81a3.37,3.37,0,0,1-1.42,1.65,3.11,3.11,0,0,0,.06.4,13.86,13.86,0,0,1-.12,4.49C3,40.9,4,39.72,4.12,40.8a7.12,7.12,0,0,1,.19,1.47C4.27,42.89,5.4,44,5.4,44L7,40.43a2.64,2.64,0,0,0-.6-.49c-.19,0-.48.05-.82-.18s0-.65,0-.87a11.61,11.61,0,0,1-.16-2.7c.08-2.06.59-2.09,1.44-1.68.59.28,3.67,2.12,4.44,2.15a12.23,12.23,0,0,0,3.32-.37h0c-.65-.67-1.53-.92-3-2-.88-.68-1.29-.87-3-2.31l.25,0s1.3,1.05,2.94,2.2,2,1.2,2,1.2c2.09-.08,4.5-2.37,4.5-2.37a12.35,12.35,0,0,1-4,2.79l.6.51h0c3.12,2.49,4.26.69,11.68,3.13a11,11,0,0,1,4.73,3.28c.39,1.28,1.25,2.85,2.1,5.2s-.39,3.88-1,4.81a11.72,11.72,0,0,1-3.17,3.29,3.59,3.59,0,0,0-.46,1.58,2.53,2.53,0,0,0,0,.31h1.07a3.75,3.75,0,0,1,.39-1.62c4.07-3.57,4.59-5.43,4.44-7.17-.1-1.15-1.1-2.26-2.59-6.18-2.41-2.27-3.58-3.59-3.58-3.59a24.28,24.28,0,0,0,3.3,2.8,9.17,9.17,0,0,1-.31-2.93A4.57,4.57,0,0,1,34.62,35l.13,0-.13,0c-.46.17-2.1,1-2.52,4.12a9.23,9.23,0,0,0,1,4.62c.75,2,1.94,4.19,2.07,5.34a5.69,5.69,0,0,1-1.32,4.18,14.34,14.34,0,0,1-3.05,3,3.38,3.38,0,0,0-.46,1.58h0a2.67,2.67,0,0,0,0,.32h4.21a3.34,3.34,0,0,0,0-1.65c-.52-1,.13-.8.49-1.2.57-.63-.5-.25,1.7-2.3a5.69,5.69,0,0,0,1.08-1.47,1.19,1.19,0,0,0-.06-1.35,9.84,9.84,0,0,1-.34-2.4c0-.85,0-2.75.94-3.07a5.77,5.77,0,0,0,3.43-3,4.7,4.7,0,0,0,.56-2.17h0S42.3,39.47,42.3,39.44Z"/><path class="ctr-1" d="M18.3,32.83l-.27,0h.2Z"/><path class="ctr-1" d="M18.3,32.83l-.27,0h.2Z"/><path class="ctr-1" d="M16.08,28.21l-.1,0Z"/><path class="ctr-1" d="M47.16,52.7c0-2,.69-4.1.71-6.82,0-3.28-.67-6.32-3.1-7.17-.81-.28-1.68-.62-2.39-.92a10.81,10.81,0,0,1,.37,2.11h0a2.64,2.64,0,0,1,.52.86,8.22,8.22,0,0,1-.7,5.53c-1,1.67-1.6,6.12-.2,7.51C47,58.46,51,56.52,51,56.52S47.23,55.57,47.16,52.7Z"/><path class="ctr-1" d="M42.6,39.75l-.17-.12Z"/><path class="ctr-1" d="M42.43,39.63l-.13-.08Z"/><path class="ctr-1" d="M42.6,39.75l.14.14Z"/><path class="ctr-1" d="M27.86,1.41C26.66-.28,25.19-.47,23.07,1c-1.79,1.21-1.7,2.54-4.12,3a30.64,30.64,0,0,1-4.6.07,21.34,21.34,0,0,0,4.55.81,6,6,0,0,0,3.7-2c1-1,2.08-1.76,2.79-1.73a2.52,2.52,0,0,1,2,3.2L27,5.63l.3.19a8.92,8.92,0,0,0,.54-1.32c.07-.23.13-.47.18-.7a2.9,2.9,0,0,0,0-.72,2.62,2.62,0,0,0-.53-1.34,3.54,3.54,0,0,0-1.08-1,3.58,3.58,0,0,1,1.1,1A2.65,2.65,0,0,1,28,3.81c0,.24-.1.48-.16.71a8.31,8.31,0,0,1-.5,1.37l.15.1C28,5,28.83,2.77,27.86,1.41Z"/><path class="ctr-1" d="M17.67,11.63a3.9,3.9,0,0,0-.65-.75c-.55-.57-.33-.63-.64-.8l-1.2-.64.12.1c.83.66,1.24,1.4,2.52,2.33A.33.33,0,0,1,17.67,11.63Z"/><path class="ctr-1" d="M15.16,9.42l-.23-.2Z"/><path class="ctr-1" d="M16.84,7.25,16.58,7l.27.23Z"/><path class="ctr-1" d="M29.32,18.33h0v0Z"/><path class="ctr-1" d="M15.18,9.44h0l0,0Z"/><path class="ctr-1" d="M17.84,11.88Z"/><polygon class="ctr-1" points="14.93 9.22 14.93 9.22 14.93 9.22 14.93 9.22"/><path class="ctr-1" d="M27.86,10.3c.12-.2.29-.2.41-.36a2.17,2.17,0,0,0,.43-.59,3.76,3.76,0,0,0,0-1.19c-.08-.53,0-.74-.47-1.19a5.74,5.74,0,0,0-.81-.73h0A1.91,1.91,0,0,0,26.86,6h0a1,1,0,0,0-.34,0,5.4,5.4,0,0,0-1.77.74c-.23.2-.87.89-1.11,1.16a1.07,1.07,0,0,0-.26.93,1.61,1.61,0,0,1-.12.87,2.19,2.19,0,0,1-.26.5l4.8.23Z"/><path class="ctr-1" d="M26.48,11.63c.24-.14.57-.31.67-.53a1.11,1.11,0,0,1,.26-.41l-4.61-.22-.12.19s-.56,0-1.14,0a.72.72,0,0,0,0-.21l-1.31-.06c0,.08,0,.13,0,.13l9.1,7.85c-.27-.64-.73-.85-.7-1.2s.16-1.69-.37-2.26A22.44,22.44,0,0,0,26.42,13l-.08-.07a.24.24,0,0,1,0-.14,1.62,1.62,0,0,0,0-.58C26.33,12,26.25,11.77,26.48,11.63Z"/><path class="ctr-1" d="M20.32,9.05c-2.13-1.11-.79.5-3.47-1.8a15.17,15.17,0,0,0,1,1.27,5.42,5.42,0,0,0,1.42.64c.23.11,0,.14.38.38s.55.32.61.49l1.24.06A2.38,2.38,0,0,0,20.32,9.05Z"/><path class="ctr-1" d="M38.5,10c-.37-.82-1.16-.12-1.64.81h.27a.19.19,0,0,1,.18.22v0a.2.2,0,0,1-.23.12l-.35-.07c0,.09-.07.18-.1.27a5.17,5.17,0,0,0-.06,3.35c.37,1.41.7,2.86.23,3.77-2,3.93-4.32,3.6-5.14,4.38s-1,2.63-2.46,4c-2.28,2.24-4.16,1-5.63.34a3.45,3.45,0,0,0-3.5.36c-.94.53-1.13,1.15-.53,1.18,1.2.07-.34-.33,1.4-1,.3-.12,1-.71,2.85.32A4.63,4.63,0,0,0,29.11,28c1.67-1.09,2.38-3.22,3.48-4.3S35,22.47,37.2,19.54c1-1.43.67-3.35,0-5.53a4.23,4.23,0,0,1,.34-2.79C37.87,10.24,38.86,10.83,38.5,10Z"/><path class="ctr-1" d="M27.8,10.39c-.09.15-.16.26-.3.27l-.09,0,9.31.44c0-.1.09-.2.14-.3Z"/></g></g></svg>