<svg xmlns="http://www.w3.org/2000/svg" viewBox="0 0 417.57 595.59"><defs><style>.dzi-1{fill:#ed47a3;}</style></defs><g id="Layer_2" data-name="Layer 2"><g id="Layer_1-2" data-name="Layer 1"><path class="dzi-1" d="M417.52,238c-.49-26.74-4.36-64.25-12.64-89.5A218.59,218.59,0,0,0,363,74.41Q334.5,40.92,287.69,20.46T174.53,0H0V476.3H196.23a236,236,0,0,0,84.64-15.19,218.18,218.18,0,0,0,71-43.71q2.36-2.19,4.64-4.44c-7.94,70.07-67.59,123-140,123H119.29v59.59h115A183.31,183.31,0,0,0,417.57,412.28V238Zm-73.71,85.46q-13,30.69-36.27,51.77A160.75,160.75,0,0,1,253,407.48c-20.88,7.44-43.72,9.16-68.52,9.16H60.15v-357H190c21.91,0,42.79,1.62,62.63,8.85A163,163,0,0,1,306,100.45q23.56,21.09,37.2,52.39c9.09,20.88,13.65,59.17,13.65,86.86C356.83,265.74,352.49,303,343.81,323.46Z"/><rect class="dzi-1" x="30.64" y="536" width="59.46" height="59.46" rx="29.73"/></g></g></svg>