<svg xmlns="http://www.w3.org/2000/svg" viewBox="0 0 179.29 238.59"><defs><style>.cls-1{fill:#ed47a3;}</style></defs><g id="Layer_2" data-name="Layer 2"><g id="Layer_1-2" data-name="Layer 1"><path class="cls-1" d="M179.26,90a103.19,103.19,0,0,0-5-30.51,87.51,87.51,0,0,0-16.77-29.68Q146,16.38,127.26,8.2T81.93,0H24.4A24.41,24.41,0,0,0,0,24.4V155.18a24.41,24.41,0,0,0,24.4,24.41H90.63a94.59,94.59,0,0,0,33.9-6.09A87.48,87.48,0,0,0,153,156c.76-.7,1.5-1.43,2.23-2.16V159a56.46,56.46,0,0,1-56.46,56.46H65.46a5.17,5.17,0,0,0-5.17,5.17v12.76a5.18,5.18,0,0,0,5.17,5.17h40.4a73.43,73.43,0,0,0,73.43-73.43V90Zm-29.52,28.36a58.25,58.25,0,0,1-14.53,20.74A64.27,64.27,0,0,1,113.35,152a81.21,81.21,0,0,1-27.44,4.48H33.18a9.09,9.09,0,0,1-9.09-9.09V32.18a9.09,9.09,0,0,1,9.09-9.08h55a72.62,72.62,0,0,1,25.09,4.35,65.27,65.27,0,0,1,21.36,12.79,59.71,59.71,0,0,1,14.9,21Q155,73.77,155,90.41A70.92,70.92,0,0,1,149.74,118.36Z"/><circle class="cls-1" cx="29.79" cy="227.04" r="11.5"/></g></g></svg>