<svg xmlns="http://www.w3.org/2000/svg" viewBox="0 0 405 379.5"><defs><style>.dsn-1{fill:none;stroke:#292929;stroke-linecap:round;stroke-linejoin:round;stroke-width:5px;}.dsn-2{fill:#292929;}</style></defs><g id="Layer_2" data-name="Layer 2"><g id="Layer_1-2" data-name="Layer 1"><g id="KB"><line class="dsn-1" x1="59.74" y1="377" x2="246.86" y2="377"/><line class="dsn-1" x1="75.3" y1="364" x2="75.3" y2="377"/><line class="dsn-1" x1="88.3" y1="364" x2="88.3" y2="377"/><line class="dsn-1" x1="101.3" y1="364" x2="101.3" y2="377"/><line class="dsn-1" x1="114.3" y1="364" x2="114.3" y2="377"/><line class="dsn-1" x1="127.3" y1="364" x2="127.3" y2="377"/><line class="dsn-1" x1="140.3" y1="364" x2="140.3" y2="377"/><line class="dsn-1" x1="153.3" y1="364" x2="153.3" y2="377"/><line class="dsn-1" x1="166.3" y1="364" x2="166.3" y2="377"/><line class="dsn-1" x1="179.3" y1="364" x2="179.3" y2="377"/><line class="dsn-1" x1="192.3" y1="364" x2="192.3" y2="377"/><line class="dsn-1" x1="205.3" y1="364" x2="205.3" y2="377"/><line class="dsn-1" x1="218.3" y1="364" x2="218.3" y2="377"/><line class="dsn-1" x1="231.3" y1="364" x2="231.3" y2="377"/><path class="dsn-1" d="M303.64,371.09,300.23,377h45l-3.41-5.91A22.06,22.06,0,0,0,303.64,371.09Z"/></g><g id="mnt"><path id="mve1" class="dsn-1" d="M321,2.5h48.93A32.57,32.57,0,0,1,402.5,35.07V269.93a32.57,32.57,0,0,1-32.57,32.57H35.07A32.57,32.57,0,0,1,2.5,269.93V249H366"/><path id="mve2" class="dsn-1" d="M2.5,215.16V35.07A32.57,32.57,0,0,1,35.07,2.5H122"/><circle class="dsn-2" cx="202.5" cy="275.5" r="10"/></g><g id="ruller"><line class="dsn-1" x1="321" y1="81.98" x2="321" y2="215"/><line class="dsn-1" x1="292.75" y1="81.98" x2="292.75" y2="215"/><polyline class="dsn-1" points="264.5 215 264.5 60.91 292.75 3 321 60.91 292.75 60.91"/><polyline class="dsn-1" points="208.29 215.16 154 215.16 154 2.5 229.6 2.5 229.6 215"/><line class="dsn-1" x1="178.5" y1="23" x2="154" y2="23"/><line class="dsn-1" x1="166" y1="37" x2="154" y2="37"/><line class="dsn-1" x1="166" y1="51" x2="154" y2="51"/><line class="dsn-1" x1="178.5" y1="65" x2="154" y2="65"/><line class="dsn-1" x1="166" y1="79" x2="154" y2="79"/><line class="dsn-1" x1="166" y1="93" x2="154" y2="93"/><line class="dsn-1" x1="178.5" y1="107" x2="154" y2="107"/><line class="dsn-1" x1="166" y1="121" x2="154" y2="121"/><line class="dsn-1" x1="166" y1="135" x2="154" y2="135"/><line class="dsn-1" x1="178.5" y1="149" x2="154" y2="149"/><line class="dsn-1" x1="166" y1="163" x2="154" y2="163"/><line class="dsn-1" x1="166" y1="177" x2="154" y2="177"/></g></g></g></svg>