<svg xmlns="http://www.w3.org/2000/svg" viewBox="0 0 1194.25 1187.28"><defs><style>.fcb-2{fill:#292929;}</style></defs><g id="Layer_2" data-name="Layer 2"><g id="Layer_1-2" data-name="Layer 1"><path class="fcb-2" d="M504.05,1187.28c-21.69-2.72-42.94-7.63-64-13.4-208.52-57.28-369.86-221-421.94-430.73C-62.95,416.58,136.14,99.27,448.91,19,651-32.89,862.24,23,1012.38,168.33c97.22,94.08,157.34,208.48,175.5,342.67,26.17,193.32-28.33,362.24-163.31,503.32C934.32,1108.65,823,1165.11,694.23,1187a33,33,0,0,1-3.46.22c0-.17,0-.33,0-.5q0-205.95-.12-411.9c0-3.89,1.26-4.65,4.85-4.64,43.16.12,86.32,0,129.47.15,3.64,0,5.1-.81,5.69-4.73q12.15-80.79,24.66-161.53c1-6.56,1-6.57-5.74-6.57-51.16,0-102.31-.06-153.46.11-4.51,0-5.5-1.28-5.48-5.58.16-35.83.07-71.65.11-107.48a117.43,117.43,0,0,1,1.62-19.9c4.62-26.75,17-48.2,41.89-61,15.43-8,32.09-11,49.28-11.14q37.23-.31,74.48-.06c4,0,5.38-.86,5.36-5.16q-.23-68.49,0-137c0-4-1.06-5.35-5.08-5.94a1002.8,1002.8,0,0,0-107.88-10.43c-28.92-1.14-57.65.07-85.93,6.72C611.79,253.05,569,280,539.66,326.27c-23.63,37.35-34,78.9-35.07,122.49-1.2,47.46-.5,95-.41,142.46,0,4.84-.88,6.45-6.17,6.42-46.65-.24-93.31-.08-140-.23-4.4,0-5.87.9-5.86,5.66q.29,80.73,0,161.47c0,4.46,1,5.85,5.7,5.83,47-.19,94-.07,141-.2,4.07,0,5.3,1,5.3,5.2Q504,981.32,504.05,1187.28Z"/></g></g></svg>