<svg xmlns="http://www.w3.org/2000/svg" viewBox="0 0 148.01 216"><defs><style>.fig-1{fill:#292929;}</style></defs><g id="Layer_2" data-name="Layer 2"><g id="Flat"><path class="fig-1" d="M129.05,74A40,40,0,0,0,108,0H40A40,40,0,0,0,19,74a40,40,0,0,0,0,68,40,40,0,1,0,61,34V136.53a40,40,0,1,0,56-57,39.43,39.43,0,0,0-7-5.49Zm7-34a28,28,0,0,1-28,28H80V12h28A28,28,0,0,1,136,40ZM12,40A28,28,0,0,1,40,12H68V68H40A28,28,0,0,1,12,40Zm0,68A28,28,0,0,1,40,80H68v56H40A28,28,0,0,1,12,108Zm28,96A28,28,0,1,1,40,148H68v28A28,28,0,0,1,40,204Zm68-68a28,28,0,0,1,0-56h0a28,28,0,0,1,0,56Z"/></g></g></svg>