<svg xmlns="http://www.w3.org/2000/svg" viewBox="0 0 565.23 147"><defs><style>.tch-1{fill:#292929;}</style></defs><g id="Layer_2" data-name="Layer 2"><g id="Layer_2-2" data-name="Layer 2"><g id="T"><circle class="tch-1" cx="3.5" cy="36.5" r="3.5"/><circle class="tch-1" cx="12.88" cy="36.5" r="3.5"/><circle class="tch-1" cx="22.27" cy="36.5" r="3.5"/><circle class="tch-1" cx="31.65" cy="36.5" r="3.5"/><circle class="tch-1" cx="41.04" cy="36.5" r="3.5"/><circle class="tch-1" cx="50.42" cy="36.5" r="3.5"/><circle class="tch-1" cx="59.81" cy="36.5" r="3.5"/><circle class="tch-1" cx="69.19" cy="36.5" r="3.5"/><circle class="tch-1" cx="78.58" cy="36.5" r="3.5"/><circle class="tch-1" cx="87.96" cy="36.5" r="3.5"/><circle class="tch-1" cx="97.35" cy="36.5" r="3.5"/><circle class="tch-1" cx="106.73" cy="36.5" r="3.5"/><circle class="tch-1" cx="116.12" cy="36.5" r="3.5"/><circle class="tch-1" cx="125.5" cy="36.5" r="3.5"/><circle class="tch-1" cx="44.5" cy="44.5" r="3.5"/><circle class="tch-1" cx="44.5" cy="54.1" r="3.5"/><circle class="tch-1" cx="44.5" cy="63.7" r="3.5"/><circle class="tch-1" cx="44.5" cy="73.3" r="3.5"/><circle class="tch-1" cx="44.5" cy="82.9" r="3.5"/><circle class="tch-1" cx="44.5" cy="92.5" r="3.5"/><circle class="tch-1" cx="44.5" cy="102.1" r="3.5"/><circle class="tch-1" cx="44.5" cy="111.7" r="3.5"/><circle class="tch-1" cx="44.5" cy="121.3" r="3.5"/><circle class="tch-1" cx="44.5" cy="130.9" r="3.5"/><circle class="tch-1" cx="44.5" cy="140.5" r="3.5"/><circle class="tch-1" cx="54.5" cy="44.5" r="3.5"/><circle class="tch-1" cx="54.5" cy="54.1" r="3.5"/><circle class="tch-1" cx="54.5" cy="63.7" r="3.5"/><circle class="tch-1" cx="54.5" cy="73.3" r="3.5"/><circle class="tch-1" cx="54.5" cy="82.9" r="3.5"/><circle class="tch-1" cx="54.5" cy="92.5" r="3.5"/><circle class="tch-1" cx="54.5" cy="102.1" r="3.5"/><circle class="tch-1" cx="54.5" cy="111.7" r="3.5"/><circle class="tch-1" cx="54.5" cy="121.3" r="3.5"/><circle class="tch-1" cx="54.5" cy="130.9" r="3.5"/><circle class="tch-1" cx="54.5" cy="140.5" r="3.5"/><circle class="tch-1" cx="64.5" cy="44.5" r="3.5"/><circle class="tch-1" cx="64.5" cy="54.1" r="3.5"/><circle class="tch-1" cx="64.5" cy="63.7" r="3.5"/><circle class="tch-1" cx="64.5" cy="73.3" r="3.5"/><circle class="tch-1" cx="64.5" cy="82.9" r="3.5"/><circle class="tch-1" cx="64.5" cy="92.5" r="3.5"/><circle class="tch-1" cx="64.5" cy="102.1" r="3.5"/><circle class="tch-1" cx="64.5" cy="111.7" r="3.5"/><circle class="tch-1" cx="64.5" cy="121.3" r="3.5"/><circle class="tch-1" cx="64.5" cy="130.9" r="3.5"/><circle class="tch-1" cx="64.5" cy="140.5" r="3.5"/><circle class="tch-1" cx="74.5" cy="44.5" r="3.5"/><circle class="tch-1" cx="74.5" cy="54.1" r="3.5"/><circle class="tch-1" cx="74.5" cy="63.7" r="3.5"/><circle class="tch-1" cx="74.5" cy="73.3" r="3.5"/><circle class="tch-1" cx="74.5" cy="82.9" r="3.5"/><circle class="tch-1" cx="74.5" cy="92.5" r="3.5"/><circle class="tch-1" cx="74.5" cy="102.1" r="3.5"/><circle class="tch-1" cx="74.5" cy="111.7" r="3.5"/><circle class="tch-1" cx="74.5" cy="121.3" r="3.5"/><circle class="tch-1" cx="74.5" cy="130.9" r="3.5"/><circle class="tch-1" cx="74.5" cy="140.5" r="3.5"/><circle class="tch-1" cx="84.5" cy="44.5" r="3.5"/><circle class="tch-1" cx="84.5" cy="54.1" r="3.5"/><circle class="tch-1" cx="84.5" cy="63.7" r="3.5"/><circle class="tch-1" cx="84.5" cy="73.3" r="3.5"/><circle class="tch-1" cx="84.5" cy="82.9" r="3.5"/><circle class="tch-1" cx="84.5" cy="92.5" r="3.5"/><circle class="tch-1" cx="84.5" cy="102.1" r="3.5"/><circle class="tch-1" cx="84.5" cy="111.7" r="3.5"/><circle class="tch-1" cx="84.5" cy="121.3" r="3.5"/><circle class="tch-1" cx="84.5" cy="130.9" r="3.5"/><circle class="tch-1" cx="84.5" cy="140.5" r="3.5"/><circle class="tch-1" cx="3.5" cy="26.83" r="3.5"/><circle class="tch-1" cx="12.88" cy="26.83" r="3.5"/><circle class="tch-1" cx="22.27" cy="26.83" r="3.5"/><circle class="tch-1" cx="31.65" cy="26.83" r="3.5"/><circle class="tch-1" cx="41.04" cy="26.83" r="3.5"/><circle class="tch-1" cx="50.42" cy="26.83" r="3.5"/><circle class="tch-1" cx="59.81" cy="26.83" r="3.5"/><circle class="tch-1" cx="69.19" cy="26.83" r="3.5"/><circle class="tch-1" cx="78.58" cy="26.83" r="3.5"/><circle class="tch-1" cx="87.96" cy="26.83" r="3.5"/><circle class="tch-1" cx="97.35" cy="26.83" r="3.5"/><circle class="tch-1" cx="106.73" cy="26.83" r="3.5"/><circle class="tch-1" cx="116.12" cy="26.83" r="3.5"/><circle class="tch-1" cx="125.5" cy="26.83" r="3.5"/><circle class="tch-1" cx="3.5" cy="17.17" r="3.5"/><circle class="tch-1" cx="12.88" cy="17.17" r="3.5"/><circle class="tch-1" cx="22.27" cy="17.17" r="3.5"/><circle class="tch-1" cx="31.65" cy="17.17" r="3.5"/><circle class="tch-1" cx="41.04" cy="17.17" r="3.5"/><circle class="tch-1" cx="50.42" cy="17.17" r="3.5"/><circle class="tch-1" cx="59.81" cy="17.17" r="3.5"/><circle class="tch-1" cx="69.19" cy="17.17" r="3.5"/><circle class="tch-1" cx="78.58" cy="17.17" r="3.5"/><circle class="tch-1" cx="87.96" cy="17.17" r="3.5"/><circle class="tch-1" cx="97.35" cy="17.17" r="3.5"/><circle class="tch-1" cx="106.73" cy="17.17" r="3.5"/><circle class="tch-1" cx="116.12" cy="17.17" r="3.5"/><circle class="tch-1" cx="125.5" cy="17.17" r="3.5"/><circle class="tch-1" cx="3.5" cy="7.5" r="3.5"/><circle class="tch-1" cx="12.88" cy="7.5" r="3.5"/><circle class="tch-1" cx="22.27" cy="7.5" r="3.5"/><circle class="tch-1" cx="31.65" cy="7.5" r="3.5"/><circle class="tch-1" cx="41.04" cy="7.5" r="3.5"/><circle class="tch-1" cx="50.42" cy="7.5" r="3.5"/><circle class="tch-1" cx="59.81" cy="7.5" r="3.5"/><circle class="tch-1" cx="69.19" cy="7.5" r="3.5"/><circle class="tch-1" cx="78.58" cy="7.5" r="3.5"/><circle class="tch-1" cx="87.96" cy="7.5" r="3.5"/><circle class="tch-1" cx="97.35" cy="7.5" r="3.5"/><circle class="tch-1" cx="106.73" cy="7.5" r="3.5"/><circle class="tch-1" cx="116.12" cy="7.5" r="3.5"/><circle class="tch-1" cx="125.5" cy="7.5" r="3.5"/></g><g id="E"><circle class="tch-1" cx="144.5" cy="36.5" r="3.5"/><circle class="tch-1" cx="153.88" cy="36.5" r="3.5"/><circle class="tch-1" cx="163.27" cy="36.5" r="3.5"/><circle class="tch-1" cx="172.65" cy="36.5" r="3.5"/><circle class="tch-1" cx="182.04" cy="36.5" r="3.5"/><circle class="tch-1" cx="191.42" cy="36.5" r="3.5"/><circle class="tch-1" cx="200.81" cy="36.5" r="3.5"/><circle class="tch-1" cx="210.19" cy="36.5" r="3.5"/><circle class="tch-1" cx="219.58" cy="36.5" r="3.5"/><circle class="tch-1" cx="228.96" cy="36.5" r="3.5"/><circle class="tch-1" cx="238.35" cy="36.5" r="3.5"/><circle class="tch-1" cx="247.73" cy="36.5" r="3.5"/><circle class="tch-1" cx="144.5" cy="47.07" r="3.5"/><circle class="tch-1" cx="153.88" cy="47.07" r="3.5"/><circle class="tch-1" cx="163.27" cy="47.07" r="3.5"/><circle class="tch-1" cx="172.65" cy="47.07" r="3.5"/><circle class="tch-1" cx="182.04" cy="47.07" r="3.5"/><circle class="tch-1" cx="144.5" cy="57.64" r="3.5"/><circle class="tch-1" cx="153.88" cy="57.64" r="3.5"/><circle class="tch-1" cx="163.27" cy="57.64" r="3.5"/><circle class="tch-1" cx="172.65" cy="57.64" r="3.5"/><circle class="tch-1" cx="182.04" cy="57.64" r="3.5"/><circle class="tch-1" cx="144.5" cy="68.21" r="3.5"/><circle class="tch-1" cx="153.88" cy="68.21" r="3.5"/><circle class="tch-1" cx="163.27" cy="68.21" r="3.5"/><circle class="tch-1" cx="172.65" cy="68.21" r="3.5"/><circle class="tch-1" cx="182.04" cy="68.21" r="3.5"/><circle class="tch-1" cx="144.5" cy="78.79" r="3.5"/><circle class="tch-1" cx="153.88" cy="78.79" r="3.5"/><circle class="tch-1" cx="163.27" cy="78.79" r="3.5"/><circle class="tch-1" cx="172.65" cy="78.79" r="3.5"/><circle class="tch-1" cx="182.04" cy="78.79" r="3.5"/><circle class="tch-1" cx="144.5" cy="89.36" r="3.5"/><circle class="tch-1" cx="153.88" cy="89.36" r="3.5"/><circle class="tch-1" cx="163.27" cy="89.36" r="3.5"/><circle class="tch-1" cx="172.65" cy="89.36" r="3.5"/><circle class="tch-1" cx="182.04" cy="89.36" r="3.5"/><circle class="tch-1" cx="144.5" cy="99.93" r="3.5"/><circle class="tch-1" cx="153.88" cy="99.93" r="3.5"/><circle class="tch-1" cx="163.27" cy="99.93" r="3.5"/><circle class="tch-1" cx="172.65" cy="99.93" r="3.5"/><circle class="tch-1" cx="182.04" cy="99.93" r="3.5"/><circle class="tch-1" cx="144.5" cy="110.5" r="3.5"/><circle class="tch-1" cx="153.88" cy="110.5" r="3.5"/><circle class="tch-1" cx="163.27" cy="110.5" r="3.5"/><circle class="tch-1" cx="172.65" cy="110.5" r="3.5"/><circle class="tch-1" cx="182.04" cy="110.5" r="3.5"/><circle class="tch-1" cx="191.42" cy="110.5" r="3.5"/><circle class="tch-1" cx="200.81" cy="110.5" r="3.5"/><circle class="tch-1" cx="210.19" cy="110.5" r="3.5"/><circle class="tch-1" cx="219.58" cy="110.5" r="3.5"/><circle class="tch-1" cx="228.96" cy="110.5" r="3.5"/><circle class="tch-1" cx="238.35" cy="110.5" r="3.5"/><circle class="tch-1" cx="144.5" cy="120.5" r="3.5"/><circle class="tch-1" cx="153.88" cy="120.5" r="3.5"/><circle class="tch-1" cx="163.27" cy="120.5" r="3.5"/><circle class="tch-1" cx="172.65" cy="120.5" r="3.5"/><circle class="tch-1" cx="182.04" cy="120.5" r="3.5"/><circle class="tch-1" cx="191.42" cy="120.5" r="3.5"/><circle class="tch-1" cx="200.81" cy="120.5" r="3.5"/><circle class="tch-1" cx="210.19" cy="120.5" r="3.5"/><circle class="tch-1" cx="219.58" cy="120.5" r="3.5"/><circle class="tch-1" cx="228.96" cy="120.5" r="3.5"/><circle class="tch-1" cx="238.35" cy="120.5" r="3.5"/><circle class="tch-1" cx="144.5" cy="130.5" r="3.5"/><circle class="tch-1" cx="153.88" cy="130.5" r="3.5"/><circle class="tch-1" cx="163.27" cy="130.5" r="3.5"/><circle class="tch-1" cx="172.65" cy="130.5" r="3.5"/><circle class="tch-1" cx="182.04" cy="130.5" r="3.5"/><circle class="tch-1" cx="191.42" cy="130.5" r="3.5"/><circle class="tch-1" cx="200.81" cy="130.5" r="3.5"/><circle class="tch-1" cx="210.19" cy="130.5" r="3.5"/><circle class="tch-1" cx="219.58" cy="130.5" r="3.5"/><circle class="tch-1" cx="228.96" cy="130.5" r="3.5"/><circle class="tch-1" cx="238.35" cy="130.5" r="3.5"/><circle class="tch-1" cx="144.5" cy="140.5" r="3.5"/><circle class="tch-1" cx="153.88" cy="140.5" r="3.5"/><circle class="tch-1" cx="163.27" cy="140.5" r="3.5"/><circle class="tch-1" cx="172.65" cy="140.5" r="3.5"/><circle class="tch-1" cx="182.04" cy="140.5" r="3.5"/><circle class="tch-1" cx="191.42" cy="140.5" r="3.5"/><circle class="tch-1" cx="191.5" cy="58.5" r="3.5"/><circle class="tch-1" cx="191.5" cy="67.83" r="3.5"/><circle class="tch-1" cx="191.5" cy="77.17" r="3.5"/><circle class="tch-1" cx="191.5" cy="86.5" r="3.5"/><circle class="tch-1" cx="201.3" cy="58.5" r="3.5"/><circle class="tch-1" cx="201.3" cy="67.83" r="3.5"/><circle class="tch-1" cx="201.3" cy="77.17" r="3.5"/><circle class="tch-1" cx="201.3" cy="86.5" r="3.5"/><circle class="tch-1" cx="211.1" cy="58.5" r="3.5"/><circle class="tch-1" cx="211.1" cy="67.83" r="3.5"/><circle class="tch-1" cx="211.1" cy="77.17" r="3.5"/><circle class="tch-1" cx="211.1" cy="86.5" r="3.5"/><circle class="tch-1" cx="220.9" cy="58.5" r="3.5"/><circle class="tch-1" cx="220.9" cy="67.83" r="3.5"/><circle class="tch-1" cx="220.9" cy="77.17" r="3.5"/><circle class="tch-1" cx="220.9" cy="86.5" r="3.5"/><circle class="tch-1" cx="230.7" cy="58.5" r="3.5"/><circle class="tch-1" cx="230.7" cy="67.83" r="3.5"/><circle class="tch-1" cx="230.7" cy="77.17" r="3.5"/><circle class="tch-1" cx="230.7" cy="86.5" r="3.5"/><circle class="tch-1" cx="240.5" cy="58.5" r="3.5"/><circle class="tch-1" cx="240.5" cy="67.83" r="3.5"/><circle class="tch-1" cx="240.5" cy="77.17" r="3.5"/><circle class="tch-1" cx="240.5" cy="86.5" r="3.5"/><circle class="tch-1" cx="200.81" cy="140.5" r="3.5"/><circle class="tch-1" cx="210.19" cy="140.5" r="3.5"/><circle class="tch-1" cx="219.58" cy="140.5" r="3.5"/><circle class="tch-1" cx="228.96" cy="140.5" r="3.5"/><circle class="tch-1" cx="238.35" cy="140.5" r="3.5"/><circle class="tch-1" cx="247.73" cy="110.5" r="3.5"/><circle class="tch-1" cx="247.73" cy="120.5" r="3.5"/><circle class="tch-1" cx="247.73" cy="130.5" r="3.5"/><circle class="tch-1" cx="247.73" cy="140.5" r="3.5"/><circle class="tch-1" cx="144.5" cy="26.83" r="3.5"/><circle class="tch-1" cx="153.88" cy="26.83" r="3.5"/><circle class="tch-1" cx="163.27" cy="26.83" r="3.5"/><circle class="tch-1" cx="172.65" cy="26.83" r="3.5"/><circle class="tch-1" cx="182.04" cy="26.83" r="3.5"/><circle class="tch-1" cx="191.42" cy="26.83" r="3.5"/><circle class="tch-1" cx="200.81" cy="26.83" r="3.5"/><circle class="tch-1" cx="210.19" cy="26.83" r="3.5"/><circle class="tch-1" cx="219.58" cy="26.83" r="3.5"/><circle class="tch-1" cx="228.96" cy="26.83" r="3.5"/><circle class="tch-1" cx="238.35" cy="26.83" r="3.5"/><circle class="tch-1" cx="247.73" cy="26.83" r="3.5"/><circle class="tch-1" cx="144.5" cy="17.17" r="3.5"/><circle class="tch-1" cx="153.88" cy="17.17" r="3.5"/><circle class="tch-1" cx="163.27" cy="17.17" r="3.5"/><circle class="tch-1" cx="172.65" cy="17.17" r="3.5"/><circle class="tch-1" cx="182.04" cy="17.17" r="3.5"/><circle class="tch-1" cx="191.42" cy="17.17" r="3.5"/><circle class="tch-1" cx="200.81" cy="17.17" r="3.5"/><circle class="tch-1" cx="210.19" cy="17.17" r="3.5"/><circle class="tch-1" cx="219.58" cy="17.17" r="3.5"/><circle class="tch-1" cx="228.96" cy="17.17" r="3.5"/><circle class="tch-1" cx="238.35" cy="17.17" r="3.5"/><circle class="tch-1" cx="247.73" cy="17.17" r="3.5"/><circle class="tch-1" cx="144.5" cy="7.5" r="3.5"/><circle class="tch-1" cx="153.88" cy="7.5" r="3.5"/><circle class="tch-1" cx="163.27" cy="7.5" r="3.5"/><circle class="tch-1" cx="172.65" cy="7.5" r="3.5"/><circle class="tch-1" cx="182.04" cy="7.5" r="3.5"/><circle class="tch-1" cx="191.42" cy="7.5" r="3.5"/><circle class="tch-1" cx="200.81" cy="7.5" r="3.5"/><circle class="tch-1" cx="210.19" cy="7.5" r="3.5"/><circle class="tch-1" cx="219.58" cy="7.5" r="3.5"/><circle class="tch-1" cx="228.96" cy="7.5" r="3.5"/><circle class="tch-1" cx="238.35" cy="7.5" r="3.5"/><circle class="tch-1" cx="247.73" cy="7.5" r="3.5"/></g><g id="C"><circle class="tch-1" cx="282.88" cy="33.5" r="3.5"/><circle class="tch-1" cx="292.27" cy="33.5" r="3.5"/><circle class="tch-1" cx="301.65" cy="33.5" r="3.5"/><circle class="tch-1" cx="311.04" cy="33.5" r="3.5"/><circle class="tch-1" cx="320.42" cy="33.5" r="3.5"/><circle class="tch-1" cx="329.81" cy="33.5" r="3.5"/><circle class="tch-1" cx="339.19" cy="33.5" r="3.5"/><circle class="tch-1" cx="348.58" cy="33.5" r="3.5"/><circle class="tch-1" cx="357.96" cy="33.5" r="3.5"/><circle class="tch-1" cx="273.5" cy="43.5" r="3.5"/><circle class="tch-1" cx="282.88" cy="43.5" r="3.5"/><circle class="tch-1" cx="292.27" cy="43.5" r="3.5"/><circle class="tch-1" cx="301.65" cy="43.5" r="3.5"/><circle class="tch-1" cx="311.04" cy="43.5" r="3.5"/><circle class="tch-1" cx="320.42" cy="43.5" r="3.5"/><circle class="tch-1" cx="329.81" cy="43.5" r="3.5"/><circle class="tch-1" cx="273.5" cy="53.5" r="3.5"/><circle class="tch-1" cx="282.88" cy="53.5" r="3.5"/><circle class="tch-1" cx="292.27" cy="53.5" r="3.5"/><circle class="tch-1" cx="301.65" cy="53.5" r="3.5"/><circle class="tch-1" cx="311.04" cy="53.5" r="3.5"/><circle class="tch-1" cx="320.42" cy="53.5" r="3.5"/><circle class="tch-1" cx="273.5" cy="63.5" r="3.5"/><circle class="tch-1" cx="282.88" cy="63.5" r="3.5"/><circle class="tch-1" cx="292.27" cy="63.5" r="3.5"/><circle class="tch-1" cx="301.65" cy="63.5" r="3.5"/><circle class="tch-1" cx="311.04" cy="63.5" r="3.5"/><circle class="tch-1" cx="273.5" cy="73.5" r="3.5"/><circle class="tch-1" cx="282.88" cy="73.5" r="3.5"/><circle class="tch-1" cx="292.27" cy="73.5" r="3.5"/><circle class="tch-1" cx="301.65" cy="73.5" r="3.5"/><circle class="tch-1" cx="311.04" cy="73.5" r="3.5"/><circle class="tch-1" cx="273.5" cy="83.5" r="3.5"/><circle class="tch-1" cx="282.88" cy="83.5" r="3.5"/><circle class="tch-1" cx="292.27" cy="83.5" r="3.5"/><circle class="tch-1" cx="301.65" cy="83.5" r="3.5"/><circle class="tch-1" cx="311.04" cy="83.5" r="3.5"/><circle class="tch-1" cx="273.5" cy="93.5" r="3.5"/><circle class="tch-1" cx="282.88" cy="93.5" r="3.5"/><circle class="tch-1" cx="292.27" cy="93.5" r="3.5"/><circle class="tch-1" cx="301.65" cy="93.5" r="3.5"/><circle class="tch-1" cx="311.04" cy="93.5" r="3.5"/><circle class="tch-1" cx="320.42" cy="93.5" r="3.5"/><circle class="tch-1" cx="273.5" cy="103.5" r="3.5"/><circle class="tch-1" cx="282.88" cy="103.5" r="3.5"/><circle class="tch-1" cx="292.27" cy="103.5" r="3.5"/><circle class="tch-1" cx="301.65" cy="103.5" r="3.5"/><circle class="tch-1" cx="311.04" cy="103.5" r="3.5"/><circle class="tch-1" cx="320.42" cy="103.5" r="3.5"/><circle class="tch-1" cx="329.81" cy="103.5" r="3.5"/><circle class="tch-1" cx="282.88" cy="113.5" r="3.5"/><circle class="tch-1" cx="292.27" cy="113.5" r="3.5"/><circle class="tch-1" cx="301.65" cy="113.5" r="3.5"/><circle class="tch-1" cx="311.04" cy="113.5" r="3.5"/><circle class="tch-1" cx="320.42" cy="113.5" r="3.5"/><circle class="tch-1" cx="329.81" cy="113.5" r="3.5"/><circle class="tch-1" cx="339.19" cy="113.5" r="3.5"/><circle class="tch-1" cx="348.58" cy="113.5" r="3.5"/><circle class="tch-1" cx="357.96" cy="113.5" r="3.5"/><circle class="tch-1" cx="292.27" cy="123.5" r="3.5"/><circle class="tch-1" cx="301.65" cy="123.5" r="3.5"/><circle class="tch-1" cx="311.04" cy="123.5" r="3.5"/><circle class="tch-1" cx="320.42" cy="123.5" r="3.5"/><circle class="tch-1" cx="329.81" cy="123.5" r="3.5"/><circle class="tch-1" cx="339.19" cy="123.5" r="3.5"/><circle class="tch-1" cx="348.58" cy="123.5" r="3.5"/><circle class="tch-1" cx="357.96" cy="123.5" r="3.5"/><circle class="tch-1" cx="301.65" cy="133.5" r="3.5"/><circle class="tch-1" cx="311.04" cy="133.5" r="3.5"/><circle class="tch-1" cx="320.42" cy="133.5" r="3.5"/><circle class="tch-1" cx="329.81" cy="133.5" r="3.5"/><circle class="tch-1" cx="339.19" cy="133.5" r="3.5"/><circle class="tch-1" cx="348.58" cy="133.5" r="3.5"/><circle class="tch-1" cx="357.96" cy="133.5" r="3.5"/><circle class="tch-1" cx="320.42" cy="143.5" r="3.5"/><circle class="tch-1" cx="329.81" cy="143.5" r="3.5"/><circle class="tch-1" cx="339.19" cy="143.5" r="3.5"/><circle class="tch-1" cx="348.58" cy="143.5" r="3.5"/><circle class="tch-1" cx="357.96" cy="143.5" r="3.5"/><circle class="tch-1" cx="292.27" cy="23.5" r="3.5"/><circle class="tch-1" cx="301.65" cy="23.5" r="3.5"/><circle class="tch-1" cx="311.04" cy="23.5" r="3.5"/><circle class="tch-1" cx="320.42" cy="23.5" r="3.5"/><circle class="tch-1" cx="329.81" cy="23.5" r="3.5"/><circle class="tch-1" cx="339.19" cy="23.5" r="3.5"/><circle class="tch-1" cx="348.58" cy="23.5" r="3.5"/><circle class="tch-1" cx="357.96" cy="23.5" r="3.5"/><circle class="tch-1" cx="301.65" cy="13.5" r="3.5"/><circle class="tch-1" cx="311.04" cy="13.5" r="3.5"/><circle class="tch-1" cx="320.42" cy="13.5" r="3.5"/><circle class="tch-1" cx="329.81" cy="13.5" r="3.5"/><circle class="tch-1" cx="339.19" cy="13.5" r="3.5"/><circle class="tch-1" cx="348.58" cy="13.5" r="3.5"/><circle class="tch-1" cx="357.96" cy="13.5" r="3.5"/><circle class="tch-1" cx="320.42" cy="3.5" r="3.5"/><circle class="tch-1" cx="329.81" cy="3.5" r="3.5"/><circle class="tch-1" cx="339.19" cy="3.5" r="3.5"/><circle class="tch-1" cx="348.58" cy="3.5" r="3.5"/><circle class="tch-1" cx="357.96" cy="3.5" r="3.5"/><circle class="tch-1" cx="367.35" cy="33.5" r="3.5"/><circle class="tch-1" cx="367.35" cy="43.5" r="3.5"/><circle class="tch-1" cx="367.35" cy="103.5" r="3.5"/><circle class="tch-1" cx="367.35" cy="113.5" r="3.5"/><circle class="tch-1" cx="367.35" cy="123.5" r="3.5"/><circle class="tch-1" cx="367.35" cy="133.5" r="3.5"/><circle class="tch-1" cx="367.35" cy="143.5" r="3.5"/><circle class="tch-1" cx="367.35" cy="23.5" r="3.5"/><circle class="tch-1" cx="367.35" cy="13.5" r="3.5"/><circle class="tch-1" cx="367.35" cy="3.5" r="3.5"/><circle class="tch-1" cx="376.73" cy="33.5" r="3.5"/><circle class="tch-1" cx="376.73" cy="43.5" r="3.5"/><circle class="tch-1" cx="376.73" cy="53.5" r="3.5"/><circle class="tch-1" cx="376.73" cy="93.5" r="3.5"/><circle class="tch-1" cx="376.73" cy="103.5" r="3.5"/><circle class="tch-1" cx="376.73" cy="113.5" r="3.5"/><circle class="tch-1" cx="376.73" cy="123.5" r="3.5"/><circle class="tch-1" cx="376.73" cy="133.5" r="3.5"/><circle class="tch-1" cx="376.73" cy="143.5" r="3.5"/><circle class="tch-1" cx="376.73" cy="23.5" r="3.5"/><circle class="tch-1" cx="376.73" cy="13.5" r="3.5"/><circle class="tch-1" cx="376.73" cy="3.5" r="3.5"/><circle class="tch-1" cx="386.5" cy="33.5" r="3.5"/><circle class="tch-1" cx="386.5" cy="43.5" r="3.5"/><circle class="tch-1" cx="386.5" cy="53.5" r="3.5"/><circle class="tch-1" cx="386.5" cy="93.5" r="3.5"/><circle class="tch-1" cx="386.5" cy="103.5" r="3.5"/><circle class="tch-1" cx="386.5" cy="113.5" r="3.5"/><circle class="tch-1" cx="386.5" cy="123.5" r="3.5"/><circle class="tch-1" cx="386.5" cy="133.5" r="3.5"/><circle class="tch-1" cx="386.5" cy="23.5" r="3.5"/><circle class="tch-1" cx="386.5" cy="13.5" r="3.5"/><circle class="tch-1" cx="396.27" cy="33.5" r="3.5"/><circle class="tch-1" cx="396.27" cy="43.5" r="3.5"/><circle class="tch-1" cx="396.27" cy="103.5" r="3.5"/><circle class="tch-1" cx="396.27" cy="113.5" r="3.5"/><circle class="tch-1" cx="396.27" cy="123.5" r="3.5"/><circle class="tch-1" cx="396.27" cy="133.5" r="3.5"/><circle class="tch-1" cx="396.27" cy="23.5" r="3.5"/><circle class="tch-1" cx="396.27" cy="13.5" r="3.5"/><circle class="tch-1" cx="406.04" cy="33.5" r="3.5"/><circle class="tch-1" cx="406.04" cy="113.5" r="3.5"/><circle class="tch-1" cx="406.04" cy="123.5" r="3.5"/><circle class="tch-1" cx="406.04" cy="23.5" r="3.5"/></g><g id="H"><circle class="tch-1" cx="428.5" cy="35.79" r="3.5"/><circle class="tch-1" cx="437.88" cy="35.79" r="3.5"/><circle class="tch-1" cx="447.27" cy="35.79" r="3.5"/><circle class="tch-1" cx="456.65" cy="35.79" r="3.5"/><circle class="tch-1" cx="466.04" cy="35.79" r="3.5"/><circle class="tch-1" cx="428.5" cy="45.21" r="3.5"/><circle class="tch-1" cx="437.88" cy="45.21" r="3.5"/><circle class="tch-1" cx="447.27" cy="45.21" r="3.5"/><circle class="tch-1" cx="456.65" cy="45.21" r="3.5"/><circle class="tch-1" cx="466.04" cy="45.21" r="3.5"/><circle class="tch-1" cx="428.5" cy="54.64" r="3.5"/><circle class="tch-1" cx="437.88" cy="54.64" r="3.5"/><circle class="tch-1" cx="447.27" cy="54.64" r="3.5"/><circle class="tch-1" cx="456.65" cy="54.64" r="3.5"/><circle class="tch-1" cx="466.04" cy="54.64" r="3.5"/><circle class="tch-1" cx="475.42" cy="54.64" r="3.5"/><circle class="tch-1" cx="484.81" cy="54.64" r="3.5"/><circle class="tch-1" cx="494.19" cy="54.64" r="3.5"/><circle class="tch-1" cx="503.58" cy="54.64" r="3.5"/><circle class="tch-1" cx="512.96" cy="54.64" r="3.5"/><circle class="tch-1" cx="428.5" cy="64.07" r="3.5"/><circle class="tch-1" cx="437.88" cy="64.07" r="3.5"/><circle class="tch-1" cx="447.27" cy="64.07" r="3.5"/><circle class="tch-1" cx="456.65" cy="64.07" r="3.5"/><circle class="tch-1" cx="466.04" cy="64.07" r="3.5"/><circle class="tch-1" cx="475.42" cy="64.07" r="3.5"/><circle class="tch-1" cx="484.81" cy="64.07" r="3.5"/><circle class="tch-1" cx="494.19" cy="64.07" r="3.5"/><circle class="tch-1" cx="503.58" cy="64.07" r="3.5"/><circle class="tch-1" cx="512.96" cy="64.07" r="3.5"/><circle class="tch-1" cx="428.5" cy="73.5" r="3.5"/><circle class="tch-1" cx="437.88" cy="73.5" r="3.5"/><circle class="tch-1" cx="447.27" cy="73.5" r="3.5"/><circle class="tch-1" cx="456.65" cy="73.5" r="3.5"/><circle class="tch-1" cx="466.04" cy="73.5" r="3.5"/><circle class="tch-1" cx="475.42" cy="73.5" r="3.5"/><circle class="tch-1" cx="484.81" cy="73.5" r="3.5"/><circle class="tch-1" cx="494.19" cy="73.5" r="3.5"/><circle class="tch-1" cx="503.58" cy="73.5" r="3.5"/><circle class="tch-1" cx="512.96" cy="73.5" r="3.5"/><circle class="tch-1" cx="428.5" cy="82.93" r="3.5"/><circle class="tch-1" cx="437.88" cy="82.93" r="3.5"/><circle class="tch-1" cx="447.27" cy="82.93" r="3.5"/><circle class="tch-1" cx="456.65" cy="82.93" r="3.5"/><circle class="tch-1" cx="466.04" cy="82.93" r="3.5"/><circle class="tch-1" cx="475.42" cy="82.93" r="3.5"/><circle class="tch-1" cx="484.81" cy="82.93" r="3.5"/><circle class="tch-1" cx="494.19" cy="82.93" r="3.5"/><circle class="tch-1" cx="503.58" cy="82.93" r="3.5"/><circle class="tch-1" cx="512.96" cy="82.93" r="3.5"/><circle class="tch-1" cx="428.5" cy="92.36" r="3.5"/><circle class="tch-1" cx="437.88" cy="92.36" r="3.5"/><circle class="tch-1" cx="447.27" cy="92.36" r="3.5"/><circle class="tch-1" cx="456.65" cy="92.36" r="3.5"/><circle class="tch-1" cx="466.04" cy="92.36" r="3.5"/><circle class="tch-1" cx="475.42" cy="92.36" r="3.5"/><circle class="tch-1" cx="484.81" cy="92.36" r="3.5"/><circle class="tch-1" cx="494.19" cy="92.36" r="3.5"/><circle class="tch-1" cx="503.58" cy="92.36" r="3.5"/><circle class="tch-1" cx="512.96" cy="92.36" r="3.5"/><circle class="tch-1" cx="428.5" cy="101.79" r="3.5"/><circle class="tch-1" cx="437.88" cy="101.79" r="3.5"/><circle class="tch-1" cx="447.27" cy="101.79" r="3.5"/><circle class="tch-1" cx="456.65" cy="101.79" r="3.5"/><circle class="tch-1" cx="466.04" cy="101.79" r="3.5"/><circle class="tch-1" cx="428.5" cy="111.21" r="3.5"/><circle class="tch-1" cx="437.88" cy="111.21" r="3.5"/><circle class="tch-1" cx="447.27" cy="111.21" r="3.5"/><circle class="tch-1" cx="456.65" cy="111.21" r="3.5"/><circle class="tch-1" cx="466.04" cy="111.21" r="3.5"/><circle class="tch-1" cx="428.5" cy="120.64" r="3.5"/><circle class="tch-1" cx="437.88" cy="120.64" r="3.5"/><circle class="tch-1" cx="447.27" cy="120.64" r="3.5"/><circle class="tch-1" cx="456.65" cy="120.64" r="3.5"/><circle class="tch-1" cx="466.04" cy="120.64" r="3.5"/><circle class="tch-1" cx="428.5" cy="130.07" r="3.5"/><circle class="tch-1" cx="437.88" cy="130.07" r="3.5"/><circle class="tch-1" cx="447.27" cy="130.07" r="3.5"/><circle class="tch-1" cx="456.65" cy="130.07" r="3.5"/><circle class="tch-1" cx="466.04" cy="130.07" r="3.5"/><circle class="tch-1" cx="428.5" cy="139.5" r="3.5"/><circle class="tch-1" cx="437.88" cy="139.5" r="3.5"/><circle class="tch-1" cx="447.27" cy="139.5" r="3.5"/><circle class="tch-1" cx="456.65" cy="139.5" r="3.5"/><circle class="tch-1" cx="466.04" cy="139.5" r="3.5"/><circle class="tch-1" cx="428.5" cy="26.36" r="3.5"/><circle class="tch-1" cx="437.88" cy="26.36" r="3.5"/><circle class="tch-1" cx="447.27" cy="26.36" r="3.5"/><circle class="tch-1" cx="456.65" cy="26.36" r="3.5"/><circle class="tch-1" cx="466.04" cy="26.36" r="3.5"/><circle class="tch-1" cx="428.5" cy="16.93" r="3.5"/><circle class="tch-1" cx="437.88" cy="16.93" r="3.5"/><circle class="tch-1" cx="447.27" cy="16.93" r="3.5"/><circle class="tch-1" cx="456.65" cy="16.93" r="3.5"/><circle class="tch-1" cx="466.04" cy="16.93" r="3.5"/><circle class="tch-1" cx="428.5" cy="7.5" r="3.5"/><circle class="tch-1" cx="437.88" cy="7.5" r="3.5"/><circle class="tch-1" cx="447.27" cy="7.5" r="3.5"/><circle class="tch-1" cx="456.65" cy="7.5" r="3.5"/><circle class="tch-1" cx="466.04" cy="7.5" r="3.5"/><circle class="tch-1" cx="522.35" cy="35.79" r="3.5"/><circle class="tch-1" cx="522.35" cy="45.21" r="3.5"/><circle class="tch-1" cx="522.35" cy="54.64" r="3.5"/><circle class="tch-1" cx="522.35" cy="64.07" r="3.5"/><circle class="tch-1" cx="522.35" cy="73.5" r="3.5"/><circle class="tch-1" cx="522.35" cy="82.93" r="3.5"/><circle class="tch-1" cx="522.35" cy="92.36" r="3.5"/><circle class="tch-1" cx="522.35" cy="101.79" r="3.5"/><circle class="tch-1" cx="522.35" cy="111.21" r="3.5"/><circle class="tch-1" cx="522.35" cy="120.64" r="3.5"/><circle class="tch-1" cx="522.35" cy="130.07" r="3.5"/><circle class="tch-1" cx="522.35" cy="139.5" r="3.5"/><circle class="tch-1" cx="522.35" cy="26.36" r="3.5"/><circle class="tch-1" cx="522.35" cy="16.93" r="3.5"/><circle class="tch-1" cx="522.35" cy="7.5" r="3.5"/><circle class="tch-1" cx="531.73" cy="35.79" r="3.5"/><circle class="tch-1" cx="531.73" cy="45.21" r="3.5"/><circle class="tch-1" cx="531.73" cy="54.64" r="3.5"/><circle class="tch-1" cx="531.73" cy="64.07" r="3.5"/><circle class="tch-1" cx="531.73" cy="73.5" r="3.5"/><circle class="tch-1" cx="531.73" cy="82.93" r="3.5"/><circle class="tch-1" cx="531.73" cy="92.36" r="3.5"/><circle class="tch-1" cx="531.73" cy="101.79" r="3.5"/><circle class="tch-1" cx="531.73" cy="111.21" r="3.5"/><circle class="tch-1" cx="531.73" cy="120.64" r="3.5"/><circle class="tch-1" cx="531.73" cy="130.07" r="3.5"/><circle class="tch-1" cx="531.73" cy="139.5" r="3.5"/><circle class="tch-1" cx="531.73" cy="26.36" r="3.5"/><circle class="tch-1" cx="531.73" cy="16.93" r="3.5"/><circle class="tch-1" cx="531.73" cy="7.5" r="3.5"/><circle class="tch-1" cx="541.73" cy="35.79" r="3.5"/><circle class="tch-1" cx="541.73" cy="45.21" r="3.5"/><circle class="tch-1" cx="541.73" cy="54.64" r="3.5"/><circle class="tch-1" cx="541.73" cy="64.07" r="3.5"/><circle class="tch-1" cx="541.73" cy="73.5" r="3.5"/><circle class="tch-1" cx="541.73" cy="82.93" r="3.5"/><circle class="tch-1" cx="541.73" cy="92.36" r="3.5"/><circle class="tch-1" cx="541.73" cy="101.79" r="3.5"/><circle class="tch-1" cx="541.73" cy="111.21" r="3.5"/><circle class="tch-1" cx="541.73" cy="120.64" r="3.5"/><circle class="tch-1" cx="541.73" cy="130.07" r="3.5"/><circle class="tch-1" cx="541.73" cy="139.5" r="3.5"/><circle class="tch-1" cx="541.73" cy="26.36" r="3.5"/><circle class="tch-1" cx="541.73" cy="16.93" r="3.5"/><circle class="tch-1" cx="541.73" cy="7.5" r="3.5"/><circle class="tch-1" cx="551.73" cy="35.79" r="3.5"/><circle class="tch-1" cx="551.73" cy="45.21" r="3.5"/><circle class="tch-1" cx="551.73" cy="54.64" r="3.5"/><circle class="tch-1" cx="551.73" cy="64.07" r="3.5"/><circle class="tch-1" cx="551.73" cy="73.5" r="3.5"/><circle class="tch-1" cx="551.73" cy="82.93" r="3.5"/><circle class="tch-1" cx="551.73" cy="92.36" r="3.5"/><circle class="tch-1" cx="551.73" cy="101.79" r="3.5"/><circle class="tch-1" cx="551.73" cy="111.21" r="3.5"/><circle class="tch-1" cx="551.73" cy="120.64" r="3.5"/><circle class="tch-1" cx="551.73" cy="130.07" r="3.5"/><circle class="tch-1" cx="551.73" cy="139.5" r="3.5"/><circle class="tch-1" cx="551.73" cy="26.36" r="3.5"/><circle class="tch-1" cx="551.73" cy="16.93" r="3.5"/><circle class="tch-1" cx="551.73" cy="7.5" r="3.5"/><circle class="tch-1" cx="561.73" cy="35.79" r="3.5"/><circle class="tch-1" cx="561.73" cy="45.21" r="3.5"/><circle class="tch-1" cx="561.73" cy="54.64" r="3.5"/><circle class="tch-1" cx="561.73" cy="64.07" r="3.5"/><circle class="tch-1" cx="561.73" cy="73.5" r="3.5"/><circle class="tch-1" cx="561.73" cy="82.93" r="3.5"/><circle class="tch-1" cx="561.73" cy="92.36" r="3.5"/><circle class="tch-1" cx="561.73" cy="101.79" r="3.5"/><circle class="tch-1" cx="561.73" cy="111.21" r="3.5"/><circle class="tch-1" cx="561.73" cy="120.64" r="3.5"/><circle class="tch-1" cx="561.73" cy="130.07" r="3.5"/><circle class="tch-1" cx="561.73" cy="139.5" r="3.5"/><circle class="tch-1" cx="561.73" cy="26.36" r="3.5"/><circle class="tch-1" cx="561.73" cy="16.93" r="3.5"/><circle class="tch-1" cx="561.73" cy="7.5" r="3.5"/></g></g></g></svg>