<svg xmlns="http://www.w3.org/2000/svg" viewBox="0 0 570.23 44.71"><defs><style>.tch-1{fill:#292929;}</style></defs><g id="Layer_2" data-name="Layer 2"><g id="Layer_3" data-name="Layer 3"><circle class="tch-1" cx="452.27" cy="3.5" r="3.5"/><circle class="tch-1" cx="461.65" cy="3.5" r="3.5"/><circle class="tch-1" cx="471.04" cy="3.5" r="3.5"/><circle class="tch-1" cx="480.42" cy="3.5" r="3.5"/><circle class="tch-1" cx="489.81" cy="3.5" r="3.5"/><circle class="tch-1" cx="499.19" cy="3.5" r="3.5"/><circle class="tch-1" cx="508.58" cy="3.5" r="3.5"/><circle class="tch-1" cx="517.96" cy="3.5" r="3.5"/><circle class="tch-1" cx="452.27" cy="12.93" r="3.5"/><circle class="tch-1" cx="461.65" cy="12.93" r="3.5"/><circle class="tch-1" cx="471.04" cy="12.93" r="3.5"/><circle class="tch-1" cx="480.42" cy="12.93" r="3.5"/><circle class="tch-1" cx="489.81" cy="12.93" r="3.5"/><circle class="tch-1" cx="499.19" cy="12.93" r="3.5"/><circle class="tch-1" cx="508.58" cy="12.93" r="3.5"/><circle class="tch-1" cx="517.96" cy="12.93" r="3.5"/><circle class="tch-1" cx="471.04" cy="22.36" r="3.5"/><circle class="tch-1" cx="480.42" cy="22.36" r="3.5"/><circle class="tch-1" cx="489.81" cy="22.36" r="3.5"/><circle class="tch-1" cx="499.19" cy="22.36" r="3.5"/><circle class="tch-1" cx="508.58" cy="22.36" r="3.5"/><circle class="tch-1" cx="517.96" cy="22.36" r="3.5"/><circle class="tch-1" cx="480.42" cy="31.79" r="3.5"/><circle class="tch-1" cx="489.81" cy="31.79" r="3.5"/><circle class="tch-1" cx="499.19" cy="31.79" r="3.5"/><circle class="tch-1" cx="508.58" cy="31.79" r="3.5"/><circle class="tch-1" cx="517.96" cy="31.79" r="3.5"/><circle class="tch-1" cx="433.5" cy="3.5" r="3.5"/><circle class="tch-1" cx="433.5" cy="12.93" r="3.5"/><circle class="tch-1" cx="433.5" cy="22.36" r="3.5"/><circle class="tch-1" cx="433.5" cy="31.79" r="3.5"/><circle class="tch-1" cx="433.5" cy="41.21" r="3.5"/><circle class="tch-1" cx="423.5" cy="3.5" r="3.5"/><circle class="tch-1" cx="423.5" cy="12.93" r="3.5"/><circle class="tch-1" cx="423.5" cy="22.36" r="3.5"/><circle class="tch-1" cx="423.5" cy="31.79" r="3.5"/><circle class="tch-1" cx="423.5" cy="41.21" r="3.5"/><circle class="tch-1" cx="413.5" cy="3.5" r="3.5"/><circle class="tch-1" cx="413.5" cy="12.93" r="3.5"/><circle class="tch-1" cx="413.5" cy="22.36" r="3.5"/><circle class="tch-1" cx="413.5" cy="31.79" r="3.5"/><circle class="tch-1" cx="413.5" cy="41.21" r="3.5"/><circle class="tch-1" cx="403.5" cy="3.5" r="3.5"/><circle class="tch-1" cx="403.5" cy="12.93" r="3.5"/><circle class="tch-1" cx="403.5" cy="22.36" r="3.5"/><circle class="tch-1" cx="403.5" cy="31.79" r="3.5"/><circle class="tch-1" cx="403.5" cy="41.21" r="3.5"/><circle class="tch-1" cx="393.5" cy="3.5" r="3.5"/><circle class="tch-1" cx="393.5" cy="12.93" r="3.5"/><circle class="tch-1" cx="393.5" cy="22.36" r="3.5"/><circle class="tch-1" cx="393.5" cy="31.79" r="3.5"/><circle class="tch-1" cx="393.5" cy="41.21" r="3.5"/><circle class="tch-1" cx="383.5" cy="3.5" r="3.5"/><circle class="tch-1" cx="383.5" cy="12.93" r="3.5"/><circle class="tch-1" cx="383.5" cy="22.36" r="3.5"/><circle class="tch-1" cx="383.5" cy="31.79" r="3.5"/><circle class="tch-1" cx="373.5" cy="3.5" r="3.5"/><circle class="tch-1" cx="373.5" cy="12.93" r="3.5"/><circle class="tch-1" cx="373.5" cy="22.36" r="3.5"/><circle class="tch-1" cx="373.5" cy="31.79" r="3.5"/><circle class="tch-1" cx="363.5" cy="3.5" r="3.5"/><circle class="tch-1" cx="363.5" cy="12.93" r="3.5"/><circle class="tch-1" cx="363.5" cy="22.36" r="3.5"/><circle class="tch-1" cx="363.5" cy="31.79" r="3.5"/><circle class="tch-1" cx="353.5" cy="3.5" r="3.5"/><circle class="tch-1" cx="353.5" cy="12.93" r="3.5"/><circle class="tch-1" cx="353.5" cy="22.36" r="3.5"/><circle class="tch-1" cx="353.5" cy="31.79" r="3.5"/><circle class="tch-1" cx="343.5" cy="3.5" r="3.5"/><circle class="tch-1" cx="343.5" cy="12.93" r="3.5"/><circle class="tch-1" cx="333.5" cy="3.5" r="3.5"/><circle class="tch-1" cx="333.5" cy="12.93" r="3.5"/><circle class="tch-1" cx="323.5" cy="3.5" r="3.5"/><circle class="tch-1" cx="323.5" cy="12.93" r="3.5"/><circle class="tch-1" cx="323.5" cy="22.36" r="3.5"/><circle class="tch-1" cx="313.5" cy="3.5" r="3.5"/><circle class="tch-1" cx="313.5" cy="12.93" r="3.5"/><circle class="tch-1" cx="313.5" cy="22.36" r="3.5"/><circle class="tch-1" cx="313.5" cy="31.79" r="3.5"/><circle class="tch-1" cx="303.5" cy="3.5" r="3.5"/><circle class="tch-1" cx="303.5" cy="12.93" r="3.5"/><circle class="tch-1" cx="303.5" cy="22.36" r="3.5"/><circle class="tch-1" cx="303.5" cy="31.79" r="3.5"/><circle class="tch-1" cx="293.5" cy="3.5" r="3.5"/><circle class="tch-1" cx="293.5" cy="12.93" r="3.5"/><circle class="tch-1" cx="293.5" cy="22.36" r="3.5"/><circle class="tch-1" cx="293.5" cy="31.79" r="3.5"/><circle class="tch-1" cx="283.5" cy="3.5" r="3.5"/><circle class="tch-1" cx="283.5" cy="12.93" r="3.5"/><circle class="tch-1" cx="283.5" cy="22.36" r="3.5"/><circle class="tch-1" cx="283.5" cy="31.79" r="3.5"/><circle class="tch-1" cx="273.5" cy="3.5" r="3.5"/><circle class="tch-1" cx="273.5" cy="12.93" r="3.5"/><circle class="tch-1" cx="273.5" cy="22.36" r="3.5"/><circle class="tch-1" cx="273.5" cy="31.79" r="3.5"/><circle class="tch-1" cx="263.5" cy="3.5" r="3.5"/><circle class="tch-1" cx="263.5" cy="12.93" r="3.5"/><circle class="tch-1" cx="263.5" cy="22.36" r="3.5"/><circle class="tch-1" cx="263.5" cy="31.79" r="3.5"/><circle class="tch-1" cx="263.5" cy="41.21" r="3.5"/><circle class="tch-1" cx="253.5" cy="3.5" r="3.5"/><circle class="tch-1" cx="253.5" cy="12.93" r="3.5"/><circle class="tch-1" cx="253.5" cy="22.36" r="3.5"/><circle class="tch-1" cx="253.5" cy="31.79" r="3.5"/><circle class="tch-1" cx="253.5" cy="41.21" r="3.5"/><circle class="tch-1" cx="243.5" cy="3.5" r="3.5"/><circle class="tch-1" cx="243.5" cy="12.93" r="3.5"/><circle class="tch-1" cx="243.5" cy="22.36" r="3.5"/><circle class="tch-1" cx="243.5" cy="31.79" r="3.5"/><circle class="tch-1" cx="243.5" cy="41.21" r="3.5"/><circle class="tch-1" cx="233.5" cy="3.5" r="3.5"/><circle class="tch-1" cx="233.5" cy="12.93" r="3.5"/><circle class="tch-1" cx="233.5" cy="22.36" r="3.5"/><circle class="tch-1" cx="233.5" cy="31.79" r="3.5"/><circle class="tch-1" cx="233.5" cy="41.21" r="3.5"/><circle class="tch-1" cx="223.5" cy="3.5" r="3.5"/><circle class="tch-1" cx="223.5" cy="12.93" r="3.5"/><circle class="tch-1" cx="223.5" cy="22.36" r="3.5"/><circle class="tch-1" cx="223.5" cy="31.79" r="3.5"/><circle class="tch-1" cx="223.5" cy="41.21" r="3.5"/><circle class="tch-1" cx="213.5" cy="3.5" r="3.5"/><circle class="tch-1" cx="213.5" cy="12.93" r="3.5"/><circle class="tch-1" cx="213.5" cy="22.36" r="3.5"/><circle class="tch-1" cx="213.5" cy="31.79" r="3.5"/><circle class="tch-1" cx="213.5" cy="41.21" r="3.5"/><circle class="tch-1" cx="203.5" cy="3.5" r="3.5"/><circle class="tch-1" cx="203.5" cy="12.93" r="3.5"/><circle class="tch-1" cx="203.5" cy="22.36" r="3.5"/><circle class="tch-1" cx="203.5" cy="31.79" r="3.5"/><circle class="tch-1" cx="203.5" cy="41.21" r="3.5"/><circle class="tch-1" cx="193.5" cy="3.5" r="3.5"/><circle class="tch-1" cx="193.5" cy="12.93" r="3.5"/><circle class="tch-1" cx="193.5" cy="22.36" r="3.5"/><circle class="tch-1" cx="193.5" cy="31.79" r="3.5"/><circle class="tch-1" cx="193.5" cy="41.21" r="3.5"/><circle class="tch-1" cx="183.5" cy="3.5" r="3.5"/><circle class="tch-1" cx="183.5" cy="12.93" r="3.5"/><circle class="tch-1" cx="183.5" cy="22.36" r="3.5"/><circle class="tch-1" cx="183.5" cy="31.79" r="3.5"/><circle class="tch-1" cx="173.5" cy="3.5" r="3.5"/><circle class="tch-1" cx="173.5" cy="12.93" r="3.5"/><circle class="tch-1" cx="173.5" cy="22.36" r="3.5"/><circle class="tch-1" cx="163.5" cy="3.5" r="3.5"/><circle class="tch-1" cx="163.5" cy="12.93" r="3.5"/><circle class="tch-1" cx="163.5" cy="22.36" r="3.5"/><circle class="tch-1" cx="153.5" cy="3.5" r="3.5"/><circle class="tch-1" cx="153.5" cy="12.93" r="3.5"/><circle class="tch-1" cx="153.5" cy="22.36" r="3.5"/><circle class="tch-1" cx="143.5" cy="3.5" r="3.5"/><circle class="tch-1" cx="143.5" cy="12.93" r="3.5"/><circle class="tch-1" cx="143.5" cy="22.36" r="3.5"/><circle class="tch-1" cx="133.5" cy="3.5" r="3.5"/><circle class="tch-1" cx="133.5" cy="12.93" r="3.5"/><circle class="tch-1" cx="133.5" cy="22.36" r="3.5"/><circle class="tch-1" cx="133.5" cy="31.79" r="3.5"/><circle class="tch-1" cx="123.5" cy="3.5" r="3.5"/><circle class="tch-1" cx="123.5" cy="12.93" r="3.5"/><circle class="tch-1" cx="123.5" cy="22.36" r="3.5"/><circle class="tch-1" cx="123.5" cy="31.79" r="3.5"/><circle class="tch-1" cx="113.5" cy="3.5" r="3.5"/><circle class="tch-1" cx="113.5" cy="12.93" r="3.5"/><circle class="tch-1" cx="113.5" cy="22.36" r="3.5"/><circle class="tch-1" cx="113.5" cy="31.79" r="3.5"/><circle class="tch-1" cx="103.5" cy="3.5" r="3.5"/><circle class="tch-1" cx="103.5" cy="12.93" r="3.5"/><circle class="tch-1" cx="103.5" cy="22.36" r="3.5"/><circle class="tch-1" cx="103.5" cy="31.79" r="3.5"/><circle class="tch-1" cx="103.5" cy="41.21" r="3.5"/><circle class="tch-1" cx="93.5" cy="3.5" r="3.5"/><circle class="tch-1" cx="93.5" cy="12.93" r="3.5"/><circle class="tch-1" cx="93.5" cy="22.36" r="3.5"/><circle class="tch-1" cx="93.5" cy="31.79" r="3.5"/><circle class="tch-1" cx="93.5" cy="41.21" r="3.5"/><circle class="tch-1" cx="83.5" cy="3.5" r="3.5"/><circle class="tch-1" cx="83.5" cy="12.93" r="3.5"/><circle class="tch-1" cx="83.5" cy="22.36" r="3.5"/><circle class="tch-1" cx="83.5" cy="31.79" r="3.5"/><circle class="tch-1" cx="83.5" cy="41.21" r="3.5"/><circle class="tch-1" cx="73.5" cy="3.5" r="3.5"/><circle class="tch-1" cx="73.5" cy="12.93" r="3.5"/><circle class="tch-1" cx="73.5" cy="22.36" r="3.5"/><circle class="tch-1" cx="73.5" cy="31.79" r="3.5"/><circle class="tch-1" cx="73.5" cy="41.21" r="3.5"/><circle class="tch-1" cx="63.5" cy="3.5" r="3.5"/><circle class="tch-1" cx="63.5" cy="12.93" r="3.5"/><circle class="tch-1" cx="63.5" cy="22.36" r="3.5"/><circle class="tch-1" cx="63.5" cy="31.79" r="3.5"/><circle class="tch-1" cx="63.5" cy="41.21" r="3.5"/><circle class="tch-1" cx="53.5" cy="3.5" r="3.5"/><circle class="tch-1" cx="53.5" cy="12.93" r="3.5"/><circle class="tch-1" cx="53.5" cy="22.36" r="3.5"/><circle class="tch-1" cx="53.5" cy="31.79" r="3.5"/><circle class="tch-1" cx="53.5" cy="41.21" r="3.5"/><circle class="tch-1" cx="43.5" cy="3.5" r="3.5"/><circle class="tch-1" cx="43.5" cy="12.93" r="3.5"/><circle class="tch-1" cx="43.5" cy="22.36" r="3.5"/><circle class="tch-1" cx="43.5" cy="31.79" r="3.5"/><circle class="tch-1" cx="43.5" cy="41.21" r="3.5"/><circle class="tch-1" cx="33.5" cy="3.5" r="3.5"/><circle class="tch-1" cx="33.5" cy="12.93" r="3.5"/><circle class="tch-1" cx="33.5" cy="22.36" r="3.5"/><circle class="tch-1" cx="33.5" cy="31.79" r="3.5"/><circle class="tch-1" cx="23.5" cy="3.5" r="3.5"/><circle class="tch-1" cx="23.5" cy="12.93" r="3.5"/><circle class="tch-1" cx="23.5" cy="22.36" r="3.5"/><circle class="tch-1" cx="13.5" cy="3.5" r="3.5"/><circle class="tch-1" cx="13.5" cy="12.93" r="3.5"/><circle class="tch-1" cx="13.5" cy="22.36" r="3.5"/><circle class="tch-1" cx="3.5" cy="3.5" r="3.5"/><circle class="tch-1" cx="3.5" cy="12.93" r="3.5"/><circle class="tch-1" cx="3.5" cy="22.36" r="3.5"/><circle class="tch-1" cx="442.88" cy="3.5" r="3.5"/><circle class="tch-1" cx="442.88" cy="12.93" r="3.5"/><circle class="tch-1" cx="442.88" cy="22.36" r="3.5"/><circle class="tch-1" cx="442.88" cy="31.79" r="3.5"/><circle class="tch-1" cx="442.88" cy="41.21" r="3.5"/><circle class="tch-1" cx="499.19" cy="41.21" r="3.5"/><circle class="tch-1" cx="508.58" cy="41.21" r="3.5"/><circle class="tch-1" cx="517.96" cy="41.21" r="3.5"/><circle class="tch-1" cx="527.35" cy="3.5" r="3.5"/><circle class="tch-1" cx="527.35" cy="12.93" r="3.5"/><circle class="tch-1" cx="527.35" cy="22.36" r="3.5"/><circle class="tch-1" cx="527.35" cy="31.79" r="3.5"/><circle class="tch-1" cx="527.35" cy="41.21" r="3.5"/><circle class="tch-1" cx="536.73" cy="3.5" r="3.5"/><circle class="tch-1" cx="536.73" cy="12.93" r="3.5"/><circle class="tch-1" cx="536.73" cy="22.36" r="3.5"/><circle class="tch-1" cx="536.73" cy="31.79" r="3.5"/><circle class="tch-1" cx="536.73" cy="41.21" r="3.5"/><circle class="tch-1" cx="546.73" cy="3.5" r="3.5"/><circle class="tch-1" cx="546.73" cy="12.93" r="3.5"/><circle class="tch-1" cx="546.73" cy="22.36" r="3.5"/><circle class="tch-1" cx="546.73" cy="31.79" r="3.5"/><circle class="tch-1" cx="546.73" cy="41.21" r="3.5"/><circle class="tch-1" cx="556.73" cy="3.5" r="3.5"/><circle class="tch-1" cx="556.73" cy="12.93" r="3.5"/><circle class="tch-1" cx="556.73" cy="22.36" r="3.5"/><circle class="tch-1" cx="566.73" cy="3.5" r="3.5"/><circle class="tch-1" cx="566.73" cy="12.93" r="3.5"/><circle class="tch-1" cx="566.73" cy="22.36" r="3.5"/></g></g></svg>