<svg
          xmlns="http://www.w3.org/2000/svg"
          viewBox="67 150 700 700"
          id="wave-decor"
        >
          <defs>
            <style>
              .wav-1 {
                fill: none;
                stroke: #292929;
                stroke-miterlimit: 10;
                stroke-width: 1px;
              }
            </style>
          </defs>
          <g id="Layer_2" data-name="Layer 2">
            <g id="Layer_1-2" data-name="Layer 1">
              <path
                class="wav-1"
                d="M583.91.5c-101.61,0-152,105-266,172-98.12,57.67-354,115-313,211s208.17,64.8,244,137c66,133-308,188-125,342,55.94,47.07,324,77,502,61s337-134,310-277-256-183-179-345C840.14,126.4,743.36.46,583.91.5Z"
              />
              <path
                class="wav-1"
                d="M583.78,31.77c-95.75,0-143.24,99-250.67,162.09C240.65,248.2-.48,302.23,38.16,392.7s196.17,61.06,229.93,129.1C330.29,647.13-22.15,699,150.3,844.09c52.71,44.36,305.32,72.56,473.06,57.48s317.58-126.28,292.13-261S674.25,468.08,746.81,315.42C825.24,150.41,734,31.74,583.78,31.77Z"
              />
              <path
                class="wav-1"
                d="M583.65,63c-89.89,0-134.47,92.9-235.33,152.18C261.51,266.24,35.13,317,71.4,401.89S255.57,459.22,287.27,523.1C345.66,640.76,14.78,689.42,176.68,825.67c49.49,41.65,286.65,68.12,444.13,54S919,761.09,895.07,634.57,668.59,472.67,736.71,329.34C810.34,174.43,724.72,63,583.65,63Z"
              />
              <path
                class="wav-1"
                d="M583.52,94.32c-84,0-125.71,86.84-220,142.25-81.15,47.7-292.78,95.12-258.87,174.52S276.82,464.68,306.46,524.4C361,634.4,51.72,679.89,203.07,807.26c46.27,38.93,268,63.68,415.19,50.45S897,746.88,874.66,628.61s-211.74-151.36-148-285.34C795.44,198.44,715.4,94.29,583.52,94.32Z"
              />
              <path
                class="wav-1"
                d="M583.4,125.59c-78.19,0-117,80.79-204.67,132.34-75.5,44.37-272.38,88.49-240.83,162.35s160.17,49.86,187.74,105.41c50.78,102.34-237,144.66-96.18,263.15,43,36.22,249.29,59.25,386.25,46.94S875,732.67,854.24,622.64s-197-140.8-137.73-265.45C780.55,222.46,706.08,125.56,583.4,125.59Z"
              />
              <path
                class="wav-1"
                d="M583.27,156.86c-72.33,0-108.19,74.74-189.34,122.43-69.84,41-252,81.86-222.79,150.19S319.32,475.6,344.82,527c47,94.67-219.23,133.82-89,243.44,39.82,33.5,230.62,54.8,357.32,43.41S853,718.47,833.82,616.68,651.6,486.42,706.41,371.11C765.65,246.47,696.76,156.84,583.27,156.86Z"
              />
              <path
                class="wav-1"
                d="M583.14,188.13c-66.47,0-99.43,68.69-174,112.52-64.19,37.72-231.57,75.23-204.75,138S340.56,481.06,364,528.29c43.17,87-201.48,123-81.77,223.72,36.59,30.79,212,50.37,328.38,39.9s220.45-87.65,202.79-181.2S645.94,491,696.31,385C750.75,270.49,687.45,188.11,583.14,188.13Z"
              />
              <path
                class="wav-1"
                d="M583,219.41c-60.61,0-90.67,62.63-158.67,102.6-58.53,34.4-211.16,68.59-186.71,125.86s124.18,38.65,145.55,81.72c39.37,79.34-183.72,112.14-74.56,204C342,761.68,501.89,779.53,608.07,770s201-79.93,184.91-165.23S640.28,495.59,686.21,399C735.85,294.51,678.13,219.39,583,219.41Z"
              />
              <path
                class="wav-1"
                d="M582.88,250.68c-54.75,0-81.9,56.58-143.33,92.68-52.88,31.08-190.76,62-168.67,113.7S383.06,492,402.36,530.89c35.57,71.67-166,101.31-67.35,184.29,30.14,25.37,174.59,41.49,270.51,32.87s181.59-72.21,167-149.26-137.95-98.62-96.45-185.91C721,318.52,668.81,250.66,582.88,250.68Z"
              />
              <path
                class="wav-1"
                d="M582.76,282c-48.9,0-73.15,50.53-128,82.77-47.22,27.75-170.35,55.34-150.62,101.54s100.17,31.18,117.42,65.93c31.76,64-148.22,90.47-60.16,164.58,26.92,22.65,155.92,37.05,241.58,29.35s162.17-64.48,149.18-133.3S629,504.76,666,426.8C706.06,342.54,659.49,281.93,582.76,282Z"
              />
              <path
                class="wav-1"
                d="M582.63,313.22c-43,0-64.39,44.48-112.68,72.86C428.39,410.51,320,434.79,337.37,475.46s88.18,27.44,103.36,58c27.95,56.33-130.47,79.63-53,144.86C411.47,698.29,525,711,600.42,704.19s142.74-56.76,131.31-117.33-108.44-77.52-75.82-146.14C691.16,366.55,650.17,313.21,582.63,313.22Z"
              />
              <path
                class="wav-1"
                d="M582.5,344.5c-37.18,0-55.62,38.42-97.34,62.94-35.91,21.1-129.54,42.08-114.54,77.21s76.18,23.71,89.29,50.14c24.15,48.67-112.71,68.79-45.74,125.15,20.47,17.22,118.56,28.17,183.7,22.32s123.32-49,113.44-101.37-93.68-67-65.5-126.25C676.26,390.57,640.85,344.48,582.5,344.5Z"
              />
            </g>
          </g>
        </svg>